G04*
G04 #@! TF.GenerationSoftware,Altium Limited,Altium Designer,22.4.2 (48)*
G04*
G04 Layer_Color=16711935*
%FSLAX25Y25*%
%MOIN*%
G70*
G04*
G04 #@! TF.SameCoordinates,BAC31E3D-66FD-4EC8-AF34-655C25E5E96E*
G04*
G04*
G04 #@! TF.FilePolarity,Negative*
G04*
G01*
G75*
%ADD15C,0.06693*%
%ADD16R,0.06693X0.06693*%
%ADD17R,0.06496X0.06496*%
%ADD18C,0.06496*%
%ADD19R,0.06496X0.06496*%
%ADD20C,0.08661*%
%ADD21C,0.13583*%
%ADD22R,0.05709X0.05709*%
%ADD23C,0.05709*%
%ADD24C,0.04724*%
%ADD25R,0.04724X0.04724*%
%ADD26C,0.05984*%
%ADD27R,0.05984X0.05984*%
%ADD28R,0.05984X0.05984*%
%ADD29C,0.05118*%
%ADD30R,0.05118X0.05118*%
%ADD31R,0.06732X0.06732*%
%ADD32C,0.06732*%
%ADD33R,0.06095X0.06095*%
%ADD34C,0.06095*%
%ADD35R,0.07087X0.07087*%
%ADD36C,0.07087*%
%ADD37C,0.05543*%
%ADD38R,0.04724X0.04724*%
%ADD39C,0.07874*%
%ADD40R,0.07874X0.07874*%
D15*
X343000Y158000D02*
D03*
Y148000D02*
D03*
D16*
Y138000D02*
D03*
D17*
X587171Y134301D02*
D03*
X445500Y263500D02*
D03*
X511500D02*
D03*
X497000Y385000D02*
D03*
X572500Y194500D02*
D03*
D18*
X577171Y134301D02*
D03*
X567171D02*
D03*
X557171D02*
D03*
X547171D02*
D03*
X537171D02*
D03*
X343000Y243000D02*
D03*
Y233000D02*
D03*
Y223000D02*
D03*
Y213000D02*
D03*
Y203000D02*
D03*
Y193000D02*
D03*
Y183000D02*
D03*
X445500Y253500D02*
D03*
Y243500D02*
D03*
Y233500D02*
D03*
X475500Y263500D02*
D03*
Y253500D02*
D03*
Y243500D02*
D03*
Y233500D02*
D03*
X511500Y253500D02*
D03*
Y243500D02*
D03*
Y233500D02*
D03*
X541500Y263500D02*
D03*
Y253500D02*
D03*
Y243500D02*
D03*
Y233500D02*
D03*
X497000Y375000D02*
D03*
Y365000D02*
D03*
Y355000D02*
D03*
X527000Y385000D02*
D03*
Y375000D02*
D03*
Y365000D02*
D03*
Y355000D02*
D03*
X572500Y184500D02*
D03*
Y174500D02*
D03*
Y164500D02*
D03*
X602500Y194500D02*
D03*
Y184500D02*
D03*
Y174500D02*
D03*
Y164500D02*
D03*
D19*
X343000Y253000D02*
D03*
D20*
X407000Y426555D02*
D03*
Y373445D02*
D03*
X440000Y426555D02*
D03*
Y373445D02*
D03*
D21*
X322500Y110000D02*
D03*
X690000D02*
D03*
Y480000D02*
D03*
X322500D02*
D03*
D22*
X398559Y195000D02*
D03*
X667059Y380000D02*
D03*
X588756D02*
D03*
X662815Y428000D02*
D03*
X593000D02*
D03*
X533500Y418500D02*
D03*
X535000Y296500D02*
D03*
X457500D02*
D03*
X409996Y250500D02*
D03*
X606000Y233500D02*
D03*
D23*
X388559Y195000D02*
D03*
X657059Y380000D02*
D03*
X598756D02*
D03*
X642815Y428000D02*
D03*
X613000D02*
D03*
X513500Y418500D02*
D03*
X515000Y296500D02*
D03*
X477500D02*
D03*
X389996Y250500D02*
D03*
X586000Y233500D02*
D03*
D24*
X388157Y134000D02*
D03*
X493512Y435500D02*
D03*
X608539Y322000D02*
D03*
X647276D02*
D03*
X388657Y279000D02*
D03*
X463488Y414000D02*
D03*
X560500Y370000D02*
D03*
X560000Y405815D02*
D03*
D25*
X407843Y134000D02*
D03*
X463488Y435500D02*
D03*
X588854Y322000D02*
D03*
X666961D02*
D03*
X408343Y279000D02*
D03*
X493512Y414000D02*
D03*
D26*
X370000Y439000D02*
D03*
Y429000D02*
D03*
X388000Y455500D02*
D03*
X378000D02*
D03*
X444000D02*
D03*
X434000D02*
D03*
X370000Y346000D02*
D03*
Y336000D02*
D03*
X343287Y355000D02*
D03*
Y345000D02*
D03*
X370000Y372000D02*
D03*
Y382000D02*
D03*
Y278000D02*
D03*
Y288000D02*
D03*
X343287Y405500D02*
D03*
Y395500D02*
D03*
Y299000D02*
D03*
Y289000D02*
D03*
X515500Y133972D02*
D03*
X505500D02*
D03*
X454000D02*
D03*
X464000D02*
D03*
D27*
X370000Y419000D02*
D03*
Y326000D02*
D03*
X343287Y335000D02*
D03*
X370000Y392000D02*
D03*
Y298000D02*
D03*
X343287Y385500D02*
D03*
Y279000D02*
D03*
D28*
X368000Y455500D02*
D03*
X424000D02*
D03*
X495500Y133972D02*
D03*
X474000D02*
D03*
D29*
X618579Y350500D02*
D03*
X609051Y402500D02*
D03*
X646764D02*
D03*
X637236Y350500D02*
D03*
X388854Y221500D02*
D03*
X388736Y163500D02*
D03*
D30*
X589051Y350500D02*
D03*
Y402500D02*
D03*
X666764D02*
D03*
Y350500D02*
D03*
X408854Y221500D02*
D03*
X418264Y163500D02*
D03*
D31*
X473500Y455098D02*
D03*
X620500Y134374D02*
D03*
D32*
X463500Y455098D02*
D03*
X610500Y134374D02*
D03*
D33*
X546500Y455500D02*
D03*
X671500D02*
D03*
D34*
X536500D02*
D03*
X526500D02*
D03*
X516500D02*
D03*
X506500D02*
D03*
X496500D02*
D03*
X661500D02*
D03*
X651500D02*
D03*
X641500D02*
D03*
X631500D02*
D03*
X621500D02*
D03*
D35*
X569000Y455374D02*
D03*
D36*
X579000D02*
D03*
X589000D02*
D03*
X599000D02*
D03*
D37*
X638988Y244000D02*
D03*
X666547D02*
D03*
X638988Y266500D02*
D03*
X666547D02*
D03*
Y289500D02*
D03*
X638988D02*
D03*
X453720Y324500D02*
D03*
X481280D02*
D03*
X585220Y270500D02*
D03*
X612780D02*
D03*
X569280Y324500D02*
D03*
X541720D02*
D03*
X612280Y292500D02*
D03*
X584720D02*
D03*
X468000Y378280D02*
D03*
Y350720D02*
D03*
X524280Y324500D02*
D03*
X496720D02*
D03*
X433780Y349500D02*
D03*
X406220D02*
D03*
X435280Y324500D02*
D03*
X407720D02*
D03*
X408720Y302000D02*
D03*
X436280D02*
D03*
X545780Y160000D02*
D03*
X518220D02*
D03*
X489780D02*
D03*
X462220D02*
D03*
D38*
X560500Y380000D02*
D03*
X560000Y425500D02*
D03*
D39*
X657876Y138461D02*
D03*
Y148500D02*
D03*
X662659Y213500D02*
D03*
Y203461D02*
D03*
D40*
X657876Y158539D02*
D03*
X662659Y193421D02*
D03*
M02*
