M48
;Layer_Color=9474304
;FILE_FORMAT=2:4
INCH,TZ
;TYPE=PLATED
T1F00S00C0.0157
T2F00S00C0.0276
T3F00S00C0.0295
T4F00S00C0.0315
T5F00S00C0.0350
T6F00S00C0.0354
T7F00S00C0.0402
T8F00S00C0.0409
T9F00S00C0.0433
T10F00S00C0.0512
T11F00S00C0.0610
T12F00S00C0.1181
%
T01
X36042Y23242
X46700Y24950
X40150Y39850
X55583Y45537
X58164Y35650
T02
X38816Y13400
X40784
X40834Y27900
X38866
X46349Y41400
Y43550
X49351
Y41400
X56000Y40581
Y42550
X56050Y38000
Y37000
X58885Y32200
X60854
X64728
X66696
T03
X63899Y24400
Y26650
Y28950
X66655
Y26650
Y24400
X61278Y27050
X61228Y29250
X58472
X58522Y27050
X54578Y16000
X51822
X48978
X46222
X43628Y30200
X40872
X40772Y32450
X40622Y34950
X43378
X43528Y32450
X45372
X46800Y35072
Y37828
X48128Y32450
X49672
X52428
X54172
X56928
T04
X47750Y29650
X51500
X53500
X58600Y23350
X60600
X40885Y22150
X38885
X38856Y19500
X39856
X38874Y16350
X41826
X41000Y25050
X39000
X45750Y29650
X51350Y41850
X53350
X59300Y42800
X61300
X60905Y40250
X58905
X58876Y38000
X59876
X58905Y35050
X61858
X63724
X66676
X66706Y38000
X65706
X66676Y40250
X64676
X64282Y42800
X66281
T05
X49650Y45550
X50650
X51650
X52650
X53650
X54650
X62150
X63150
X64150
X65150
X66150
X67150
T06
X53717Y13430
X54717
X55717
X56717
X57717
X58717
X57250Y16450
Y17450
Y18450
Y19450
X60250
Y18450
Y17450
Y16450
X54150Y23350
Y24350
Y25350
Y26350
X51150
Y25350
Y24350
Y23350
X47550
Y24350
Y25350
Y26350
X44550
Y25350
Y24350
Y23350
X34300Y23300
Y24300
Y25300
Y22300
Y21300
Y20300
Y19300
Y18300
X49700Y35500
Y36500
Y37500
Y38500
X52700
Y37500
Y36500
Y35500
T07
X34300Y13800
Y14800
X45400Y13397
X46400
X47400
X49550
X50550
X51550
X34300Y15800
X34329Y27900
Y28900
Y29900
X37000Y29800
Y28800
Y27800
Y32600
Y33600
Y34600
Y37200
Y38200
Y39200
Y41900
Y42900
Y43900
X36800Y45550
X37800
X38800
X42400
X43400
X44400
X34329Y40550
Y39550
Y38550
Y35500
Y34500
Y33500
T08
X61050Y13437
X62050
X46350Y45510
X47350
T09
X56900Y45537
X57900
X58900
X59900
T10
X65788Y13846
Y14850
Y15854
X66266Y19342
Y20346
Y21350
T11
X40700Y37344
X44000
Y42656
X40700
T12
X32250Y11000
X69000
Y48000
X32250
M30
