G04*
G04 #@! TF.GenerationSoftware,Altium Limited,Altium Designer,22.4.2 (48)*
G04*
G04 Layer_Physical_Order=1*
G04 Layer_Color=255*
%FSLAX25Y25*%
%MOIN*%
G70*
G04*
G04 #@! TF.SameCoordinates,BAC31E3D-66FD-4EC8-AF34-655C25E5E96E*
G04*
G04*
G04 #@! TF.FilePolarity,Positive*
G04*
G01*
G75*
%ADD24C,0.04724*%
%ADD25R,0.04724X0.04724*%
%ADD29C,0.05118*%
%ADD30R,0.05118X0.05118*%
%ADD38R,0.04724X0.04724*%
%ADD39C,0.07874*%
%ADD40R,0.07874X0.07874*%
%ADD41C,0.04528*%
%ADD42C,0.05906*%
%ADD43C,0.01575*%
%ADD44C,0.06102*%
%ADD45R,0.06102X0.06102*%
%ADD46R,0.05906X0.05906*%
%ADD47C,0.05906*%
%ADD48R,0.05906X0.05906*%
%ADD49C,0.08071*%
%ADD50C,0.12992*%
%ADD51C,0.05394*%
%ADD52R,0.05394X0.05394*%
%ADD53R,0.05394X0.05394*%
%ADD54R,0.06142X0.06142*%
%ADD55C,0.06142*%
%ADD56R,0.05504X0.05504*%
%ADD57C,0.05504*%
%ADD58R,0.06496X0.06496*%
%ADD59C,0.06496*%
%ADD60C,0.04953*%
%ADD61C,0.03543*%
G36*
X699197Y100803D02*
X314803D01*
Y488197D01*
X699197D01*
Y100803D01*
D02*
G37*
%LPC*%
G36*
X692898Y486996D02*
X687102D01*
X683004Y482898D01*
Y477102D01*
X687102Y473004D01*
X692898D01*
X696996Y477102D01*
Y482898D01*
X692898Y486996D01*
D02*
G37*
G36*
X325398D02*
X319602D01*
X315504Y482898D01*
Y477102D01*
X319602Y473004D01*
X325398D01*
X329496Y477102D01*
Y482898D01*
X325398Y486996D01*
D02*
G37*
G36*
X621800Y473694D02*
X513300D01*
X512315Y473285D01*
X498197Y459167D01*
X498135Y459130D01*
X497956Y459041D01*
X497761Y458965D01*
X497550Y458903D01*
X497322Y458853D01*
X497077Y458818D01*
X496813Y458798D01*
X496518Y458793D01*
X496424Y458752D01*
X495153D01*
X493248Y456847D01*
Y454153D01*
X494646Y452755D01*
X494454Y452293D01*
X488777D01*
X478585Y462485D01*
X477600Y462893D01*
X462000D01*
X461015Y462485D01*
X457615Y459085D01*
X457206Y458100D01*
Y387680D01*
X457615Y386694D01*
X464666Y379643D01*
X464673Y379631D01*
X464755Y379476D01*
X464825Y379310D01*
X464882Y379134D01*
X464927Y378947D01*
X464959Y378747D01*
X464978Y378535D01*
X464983Y378293D01*
X465024Y378200D01*
Y377047D01*
X466767Y375303D01*
X469233D01*
X470445Y376515D01*
X470906Y376324D01*
Y352676D01*
X470445Y352485D01*
X469233Y353697D01*
X466767D01*
X465024Y351953D01*
Y349487D01*
X466767Y347744D01*
X469233D01*
X470445Y348956D01*
X470906Y348764D01*
Y282877D01*
X466015Y277985D01*
X465606Y277000D01*
Y251579D01*
X465585Y251502D01*
X465551Y251411D01*
X465513Y251332D01*
X465472Y251263D01*
X465428Y251204D01*
X465361Y251131D01*
X465328Y251041D01*
X464728Y250441D01*
Y248559D01*
X466059Y247228D01*
X467941D01*
X469272Y248559D01*
Y250441D01*
X468672Y251041D01*
X468639Y251131D01*
X468572Y251204D01*
X468528Y251263D01*
X468487Y251332D01*
X468449Y251411D01*
X468415Y251502D01*
X468394Y251579D01*
Y276423D01*
X473285Y281315D01*
X473694Y282300D01*
Y388400D01*
X473285Y389385D01*
X469094Y393577D01*
Y450898D01*
X468685Y451884D01*
X467544Y453025D01*
X467478Y453138D01*
X467382Y453345D01*
X467300Y453574D01*
X467231Y453825D01*
X467177Y454100D01*
X467139Y454398D01*
X467117Y454719D01*
X467112Y455076D01*
X467071Y455171D01*
Y456577D01*
X464979Y458669D01*
X462021D01*
X460781Y457429D01*
X460242Y457597D01*
X460215Y457745D01*
X462577Y460107D01*
X477023D01*
X487215Y449915D01*
X488200Y449507D01*
X508400D01*
X509385Y449915D01*
X512485Y453015D01*
X512852Y453901D01*
X513214Y454005D01*
X513393Y454007D01*
X515153Y452248D01*
X517847D01*
X519752Y454153D01*
Y456847D01*
X517847Y458752D01*
X515153D01*
X513393Y456992D01*
X512893Y457198D01*
Y458123D01*
X516577Y461806D01*
X547423D01*
X553371Y455859D01*
X553409Y455789D01*
X553450Y455701D01*
X553479Y455618D01*
X553499Y455541D01*
X553510Y455468D01*
X553514Y455369D01*
X553554Y455281D01*
Y454433D01*
X554885Y453102D01*
X556767D01*
X558098Y454433D01*
Y456315D01*
X556767Y457646D01*
X555919D01*
X555831Y457686D01*
X555732Y457690D01*
X555659Y457701D01*
X555582Y457721D01*
X555499Y457750D01*
X555411Y457791D01*
X555341Y457829D01*
X548985Y464185D01*
X548000Y464594D01*
X516000D01*
X515015Y464185D01*
X510515Y459685D01*
X510107Y458700D01*
Y457198D01*
X509607Y456992D01*
X507847Y458752D01*
X505153D01*
X503248Y456847D01*
Y454153D01*
X504646Y452755D01*
X504454Y452293D01*
X498546D01*
X498354Y452755D01*
X499752Y454153D01*
Y455424D01*
X499793Y455518D01*
X499798Y455814D01*
X499819Y456077D01*
X499854Y456322D01*
X499903Y456550D01*
X499965Y456761D01*
X500041Y456956D01*
X500130Y457135D01*
X500167Y457197D01*
X513877Y470906D01*
X621223D01*
X624707Y467423D01*
Y457546D01*
X624245Y457354D01*
X622847Y458752D01*
X620153D01*
X618248Y456847D01*
Y454153D01*
X619147Y453254D01*
X619184Y453159D01*
X619389Y452946D01*
X619561Y452746D01*
X619710Y452547D01*
X619837Y452351D01*
X619941Y452158D01*
X620025Y451966D01*
X620090Y451777D01*
X620107Y451707D01*
Y358100D01*
X620515Y357115D01*
X621606Y356023D01*
Y352452D01*
X621145Y352260D01*
X619846Y353559D01*
X617312D01*
X616055Y352303D01*
X615593Y352494D01*
Y382823D01*
X618385Y385615D01*
X618793Y386600D01*
Y445500D01*
X618385Y446485D01*
X602885Y461985D01*
X601900Y462394D01*
X564900D01*
X563915Y461985D01*
X562915Y460985D01*
X562506Y460000D01*
Y441700D01*
X562807Y440976D01*
Y428362D01*
X560250D01*
Y425500D01*
Y422638D01*
X562807D01*
Y410592D01*
X561225Y409010D01*
X561087Y408936D01*
X560934Y408869D01*
X560772Y408814D01*
X560602Y408772D01*
X560421Y408741D01*
X560230Y408723D01*
X560011Y408718D01*
X559918Y408677D01*
X558814D01*
X557138Y407001D01*
Y404629D01*
X557918Y403849D01*
X557955Y403754D01*
X558106Y403596D01*
X558229Y403448D01*
X558335Y403299D01*
X558425Y403148D01*
X558501Y402995D01*
X558562Y402839D01*
X558606Y402690D01*
Y398577D01*
X528935Y368906D01*
X528840Y368849D01*
X528643Y368756D01*
X528427Y368676D01*
X528191Y368609D01*
X527934Y368557D01*
X527655Y368520D01*
X527355Y368499D01*
X527021Y368494D01*
X526926Y368453D01*
X525570D01*
X523547Y366430D01*
Y363570D01*
X525570Y361547D01*
X528430D01*
X530453Y363570D01*
Y364926D01*
X530494Y365021D01*
X530499Y365355D01*
X530520Y365655D01*
X530557Y365934D01*
X530610Y366191D01*
X530676Y366427D01*
X530756Y366644D01*
X530849Y366840D01*
X530906Y366935D01*
X560985Y397015D01*
X561393Y398000D01*
Y402690D01*
X561438Y402839D01*
X561499Y402995D01*
X561575Y403148D01*
X561665Y403299D01*
X561771Y403448D01*
X561894Y403596D01*
X562045Y403754D01*
X562082Y403849D01*
X562862Y404629D01*
Y405733D01*
X562903Y405826D01*
X562908Y406045D01*
X562926Y406236D01*
X562956Y406417D01*
X562999Y406587D01*
X563054Y406749D01*
X563121Y406902D01*
X563195Y407040D01*
X565185Y409030D01*
X565593Y410015D01*
Y441400D01*
X565294Y442124D01*
Y451626D01*
X572748D01*
Y459122D01*
X572748D01*
X572786Y459607D01*
X577410D01*
X577432Y459106D01*
X575252Y456926D01*
Y455624D01*
X582748D01*
Y456926D01*
X580568Y459106D01*
X580590Y459607D01*
X587410D01*
X587432Y459106D01*
X585252Y456926D01*
Y455444D01*
X585211Y455349D01*
X585206Y454958D01*
X585183Y454605D01*
X585143Y454278D01*
X585087Y453978D01*
X585016Y453705D01*
X584929Y453457D01*
X584830Y453235D01*
X584749Y453094D01*
X568294Y436639D01*
X567886Y435654D01*
Y327821D01*
X567883Y327808D01*
X567831Y327640D01*
X567763Y327474D01*
X567679Y327309D01*
X567578Y327145D01*
X567460Y326981D01*
X567323Y326817D01*
X567155Y326643D01*
X567118Y326548D01*
X566303Y325733D01*
Y323267D01*
X568047Y321524D01*
X570512D01*
X572256Y323267D01*
Y325733D01*
X571441Y326548D01*
X571404Y326643D01*
X571236Y326818D01*
X571100Y326981D01*
X570981Y327145D01*
X570880Y327309D01*
X570796Y327474D01*
X570728Y327640D01*
X570676Y327808D01*
X570673Y327821D01*
Y435076D01*
X586720Y451123D01*
X586861Y451203D01*
X587083Y451303D01*
X587330Y451390D01*
X587604Y451461D01*
X587897Y451516D01*
X588591Y451580D01*
X588975Y451585D01*
X589070Y451626D01*
X590553D01*
X592748Y453822D01*
Y456926D01*
X590568Y459106D01*
X590590Y459607D01*
X597410D01*
X597432Y459106D01*
X595252Y456926D01*
Y453822D01*
X597447Y451626D01*
X600553D01*
X602748Y453822D01*
Y456926D01*
X600568Y459106D01*
X600590Y459607D01*
X601323D01*
X616007Y444923D01*
Y429973D01*
X615545Y429782D01*
X614267Y431059D01*
X611733D01*
X609941Y429267D01*
Y426733D01*
X611733Y424941D01*
X614267D01*
X615545Y426218D01*
X616007Y426027D01*
Y387177D01*
X613215Y384385D01*
X612807Y383400D01*
Y314288D01*
X613215Y313303D01*
X635654Y290863D01*
X635662Y290852D01*
X635744Y290696D01*
X635813Y290530D01*
X635870Y290354D01*
X635915Y290167D01*
X635947Y289967D01*
X635966Y289755D01*
X635971Y289513D01*
X636012Y289420D01*
Y288267D01*
X637755Y286524D01*
X640221D01*
X641965Y288267D01*
Y290733D01*
X640221Y292476D01*
X639068D01*
X638975Y292517D01*
X638733Y292523D01*
X638521Y292541D01*
X638321Y292573D01*
X638134Y292618D01*
X637958Y292675D01*
X637792Y292745D01*
X637636Y292827D01*
X637625Y292834D01*
X615593Y314865D01*
Y348506D01*
X616055Y348697D01*
X617312Y347441D01*
X619846D01*
X621145Y348740D01*
X621606Y348548D01*
Y346276D01*
X622015Y345290D01*
X644080Y323225D01*
X644155Y323087D01*
X644221Y322934D01*
X644276Y322772D01*
X644319Y322602D01*
X644349Y322421D01*
X644367Y322230D01*
X644373Y322011D01*
X644413Y321918D01*
Y320814D01*
X646090Y319138D01*
X648461D01*
X649645Y320321D01*
X650106Y320130D01*
Y292177D01*
X643423Y285493D01*
X627877D01*
X609933Y303438D01*
Y318875D01*
X609977Y319024D01*
X610039Y319180D01*
X610114Y319333D01*
X610205Y319484D01*
X610311Y319633D01*
X610433Y319781D01*
X610584Y319939D01*
X610621Y320034D01*
X611402Y320814D01*
Y323186D01*
X609725Y324862D01*
X607354D01*
X605677Y323186D01*
Y320814D01*
X606458Y320034D01*
X606494Y319939D01*
X606646Y319781D01*
X606768Y319633D01*
X606874Y319484D01*
X606965Y319333D01*
X607040Y319180D01*
X607101Y319024D01*
X607146Y318875D01*
Y302861D01*
X607554Y301875D01*
X613453Y295976D01*
X613246Y295476D01*
X612360D01*
X612266Y295517D01*
X612025Y295522D01*
X611812Y295541D01*
X611613Y295573D01*
X611425Y295618D01*
X611249Y295675D01*
X611084Y295745D01*
X610928Y295827D01*
X610917Y295834D01*
X590248Y316502D01*
Y318784D01*
X590282Y318909D01*
X590323Y319011D01*
X590359Y319069D01*
X590381Y319093D01*
X590390Y319099D01*
X590400Y319103D01*
X590486Y319112D01*
X590534Y319138D01*
X591717D01*
Y321750D01*
X585992D01*
Y319138D01*
X587175D01*
X587223Y319112D01*
X587309Y319103D01*
X587319Y319099D01*
X587328Y319093D01*
X587350Y319069D01*
X587386Y319011D01*
X587427Y318910D01*
X587461Y318784D01*
Y315925D01*
X587869Y314940D01*
X608946Y293863D01*
X608953Y293852D01*
X609035Y293696D01*
X609104Y293531D01*
X609162Y293354D01*
X609206Y293167D01*
X609238Y292967D01*
X609257Y292755D01*
X609262Y292513D01*
X609303Y292420D01*
Y291267D01*
X611047Y289524D01*
X612030D01*
Y292500D01*
X612280D01*
Y292750D01*
X615256D01*
Y293466D01*
X615756Y293673D01*
X626315Y283115D01*
X627300Y282706D01*
X644000D01*
X644985Y283115D01*
X652485Y290615D01*
X652893Y291600D01*
Y325300D01*
X652485Y326285D01*
X627493Y351277D01*
Y468000D01*
X627085Y468985D01*
X622785Y473285D01*
X621800Y473694D01*
D02*
G37*
G36*
X379324Y458697D02*
X378250D01*
Y455750D01*
X381197D01*
Y456824D01*
X379324Y458697D01*
D02*
G37*
G36*
X377750D02*
X376676D01*
X374803Y456824D01*
Y455750D01*
X377750D01*
Y458697D01*
D02*
G37*
G36*
X445324D02*
X442676D01*
X440803Y456824D01*
Y454176D01*
X442676Y452303D01*
X445324D01*
X447197Y454176D01*
Y456824D01*
X445324Y458697D01*
D02*
G37*
G36*
X435324D02*
X432676D01*
X430803Y456824D01*
Y454176D01*
X432676Y452303D01*
X435324D01*
X437197Y454176D01*
Y456824D01*
X435324Y458697D01*
D02*
G37*
G36*
X427197D02*
X420803D01*
Y452303D01*
X427197D01*
Y458697D01*
D02*
G37*
G36*
X389324D02*
X386676D01*
X384803Y456824D01*
Y454176D01*
X386676Y452303D01*
X389324D01*
X391197Y454176D01*
Y456824D01*
X389324Y458697D01*
D02*
G37*
G36*
X381197Y455250D02*
X378250D01*
Y452303D01*
X379324D01*
X381197Y454176D01*
Y455250D01*
D02*
G37*
G36*
X377750D02*
X374803D01*
Y454176D01*
X376676Y452303D01*
X377750D01*
Y455250D01*
D02*
G37*
G36*
X371197Y458697D02*
X364803D01*
Y452303D01*
X371197D01*
Y458697D01*
D02*
G37*
G36*
X674752Y458752D02*
X668248D01*
Y452248D01*
X674752D01*
Y458752D01*
D02*
G37*
G36*
X654800Y463593D02*
X639100D01*
X638115Y463185D01*
X635915Y460985D01*
X635506Y460000D01*
Y433915D01*
X635915Y432930D01*
X639380Y429464D01*
X639397Y429437D01*
X639481Y429274D01*
X639553Y429100D01*
X639611Y428914D01*
X639658Y428714D01*
X639691Y428500D01*
X639710Y428273D01*
X639715Y428015D01*
X639756Y427921D01*
Y426733D01*
X641548Y424941D01*
X644082D01*
X645874Y426733D01*
Y429267D01*
X644082Y431059D01*
X642894D01*
X642800Y431100D01*
X642542Y431105D01*
X642315Y431124D01*
X642101Y431157D01*
X641901Y431204D01*
X641715Y431262D01*
X641541Y431334D01*
X641378Y431418D01*
X641351Y431435D01*
X638294Y434492D01*
Y453454D01*
X638755Y453646D01*
X640153Y452248D01*
X641424D01*
X641518Y452207D01*
X641814Y452202D01*
X642077Y452181D01*
X642322Y452146D01*
X642550Y452097D01*
X642761Y452035D01*
X642956Y451959D01*
X643135Y451870D01*
X643197Y451833D01*
X655665Y439364D01*
Y383464D01*
X655658Y383433D01*
X655603Y383259D01*
X655530Y383085D01*
X655440Y382911D01*
X655331Y382737D01*
X655204Y382563D01*
X655056Y382388D01*
X654877Y382203D01*
X654840Y382107D01*
X654000Y381267D01*
Y378733D01*
X655792Y376941D01*
X658326D01*
X660118Y378733D01*
Y381267D01*
X659278Y382107D01*
X659241Y382203D01*
X659062Y382388D01*
X658914Y382563D01*
X658787Y382737D01*
X658678Y382911D01*
X658588Y383085D01*
X658515Y383259D01*
X658460Y383433D01*
X658453Y383464D01*
Y439941D01*
X658044Y440926D01*
X645167Y453803D01*
X645130Y453865D01*
X645041Y454044D01*
X644966Y454239D01*
X644903Y454450D01*
X644853Y454678D01*
X644818Y454923D01*
X644798Y455187D01*
X644793Y455482D01*
X644752Y455576D01*
Y456847D01*
X642847Y458752D01*
X640153D01*
X638755Y457354D01*
X638294Y457546D01*
Y459423D01*
X639677Y460807D01*
X654223D01*
X657833Y457197D01*
X657870Y457135D01*
X657959Y456956D01*
X658035Y456761D01*
X658097Y456550D01*
X658146Y456322D01*
X658181Y456077D01*
X658202Y455814D01*
X658207Y455518D01*
X658248Y455424D01*
Y454153D01*
X660153Y452248D01*
X662847D01*
X664752Y454153D01*
Y456847D01*
X662847Y458752D01*
X661576D01*
X661482Y458793D01*
X661187Y458798D01*
X660923Y458818D01*
X660678Y458853D01*
X660450Y458903D01*
X660239Y458965D01*
X660044Y459041D01*
X659865Y459130D01*
X659803Y459167D01*
X655785Y463185D01*
X654800Y463593D01*
D02*
G37*
G36*
X652847Y458752D02*
X650153D01*
X648248Y456847D01*
Y454153D01*
X650153Y452248D01*
X652847D01*
X654752Y454153D01*
Y456847D01*
X652847Y458752D01*
D02*
G37*
G36*
X549752D02*
X543248D01*
Y452248D01*
X549752D01*
Y458752D01*
D02*
G37*
G36*
X537847D02*
X535153D01*
X533248Y456847D01*
Y454153D01*
X535153Y452248D01*
X537847D01*
X539752Y454153D01*
Y456847D01*
X537847Y458752D01*
D02*
G37*
G36*
X582748Y455124D02*
X579250D01*
Y451626D01*
X580552D01*
X582748Y453822D01*
Y455124D01*
D02*
G37*
G36*
X578750D02*
X575252D01*
Y453822D01*
X577448Y451626D01*
X578750D01*
Y455124D01*
D02*
G37*
G36*
X596059Y431059D02*
X593250D01*
Y428250D01*
X596059D01*
Y431059D01*
D02*
G37*
G36*
X592750D02*
X589941D01*
Y428250D01*
X592750D01*
Y431059D01*
D02*
G37*
G36*
X371324Y442197D02*
X368676D01*
X366803Y440324D01*
Y439077D01*
X366762Y438983D01*
X366757Y438698D01*
X366737Y438445D01*
X366703Y438209D01*
X366654Y437989D01*
X366592Y437784D01*
X366518Y437596D01*
X366431Y437421D01*
X366399Y437369D01*
X364515Y435485D01*
X364106Y434500D01*
Y386500D01*
X364515Y385515D01*
X366399Y383631D01*
X366431Y383579D01*
X366518Y383404D01*
X366592Y383215D01*
X366654Y383011D01*
X366703Y382791D01*
X366737Y382555D01*
X366757Y382302D01*
X366762Y382017D01*
X366803Y381923D01*
Y380676D01*
X368124Y379355D01*
X367932Y378893D01*
X363077D01*
X348665Y393305D01*
Y397150D01*
X348257Y398136D01*
X345412Y400981D01*
Y403103D01*
X346484Y404176D01*
Y405250D01*
X343287D01*
X340090D01*
Y404176D01*
X341963Y402303D01*
X342625D01*
Y400404D01*
X343033Y399418D01*
X343292Y399159D01*
X343101Y398697D01*
X341963D01*
X340090Y396824D01*
Y394176D01*
X341963Y392303D01*
X344612D01*
X345416Y393108D01*
X345878Y392916D01*
Y392728D01*
X346286Y391743D01*
X361515Y376515D01*
X362500Y376107D01*
X369557D01*
X370005Y375659D01*
X369814Y375197D01*
X368676D01*
X366803Y373324D01*
Y372077D01*
X366762Y371983D01*
X366757Y371698D01*
X366737Y371445D01*
X366703Y371209D01*
X366654Y370989D01*
X366592Y370784D01*
X366518Y370596D01*
X366431Y370421D01*
X366399Y370369D01*
X357615Y361585D01*
X357207Y360600D01*
Y236677D01*
X345752Y225222D01*
X345661D01*
X344430Y226453D01*
X341570D01*
X339547Y224430D01*
Y221570D01*
X341570Y219547D01*
X344430D01*
X346453Y221570D01*
Y222487D01*
X347314Y222843D01*
X357644Y233173D01*
X358144Y232966D01*
Y231474D01*
X359474Y230144D01*
X361356D01*
X362687Y231474D01*
Y232323D01*
X362728Y232410D01*
X362732Y232509D01*
X362743Y232582D01*
X362762Y232660D01*
X362792Y232742D01*
X362832Y232830D01*
X362871Y232900D01*
X367785Y237815D01*
X368194Y238800D01*
Y256565D01*
X387433Y275805D01*
X387570Y275879D01*
X387724Y275946D01*
X387885Y276001D01*
X388056Y276044D01*
X388236Y276074D01*
X388427Y276092D01*
X388646Y276097D01*
X388739Y276138D01*
X389843D01*
X391520Y277814D01*
Y280186D01*
X389843Y281862D01*
X387472D01*
X385795Y280186D01*
Y279082D01*
X385754Y278989D01*
X385749Y278770D01*
X385731Y278579D01*
X385701Y278398D01*
X385658Y278228D01*
X385603Y278066D01*
X385536Y277913D01*
X385462Y277775D01*
X365815Y258128D01*
X365406Y257143D01*
Y239377D01*
X360900Y234871D01*
X360830Y234832D01*
X360742Y234791D01*
X360660Y234762D01*
X360582Y234743D01*
X360509Y234732D01*
X360410Y234728D01*
X360323Y234687D01*
X359865D01*
X359731Y234892D01*
X359615Y235187D01*
X359994Y236100D01*
Y360023D01*
X368369Y368399D01*
X368421Y368431D01*
X368596Y368518D01*
X368784Y368592D01*
X368989Y368654D01*
X369209Y368703D01*
X369445Y368737D01*
X369698Y368757D01*
X369983Y368762D01*
X370077Y368803D01*
X371324D01*
X372281Y369760D01*
X372743Y369569D01*
Y348431D01*
X372281Y348240D01*
X371324Y349197D01*
X368676D01*
X366803Y347324D01*
Y344676D01*
X368676Y342803D01*
X371324D01*
X372281Y343760D01*
X372743Y343569D01*
Y338431D01*
X372281Y338240D01*
X371324Y339197D01*
X368676D01*
X366803Y337324D01*
Y334676D01*
X368676Y332803D01*
X371324D01*
X372281Y333760D01*
X372743Y333569D01*
Y330714D01*
X371456Y329427D01*
X371456Y329426D01*
X371233Y329271D01*
X371105Y329197D01*
X370499D01*
X370458Y329214D01*
X370416Y329197D01*
X370416D01*
X370372Y329207D01*
X370355Y329197D01*
X370250D01*
Y326250D01*
X373197D01*
Y326355D01*
X373207Y326372D01*
X373197Y326416D01*
Y326416D01*
X373214Y326458D01*
X373197Y326499D01*
Y327105D01*
X373271Y327233D01*
X373422Y327449D01*
X373433Y327462D01*
X375122Y329151D01*
X375530Y330136D01*
Y373498D01*
X375122Y374483D01*
X371302Y378303D01*
X371323Y378774D01*
X371390Y378869D01*
X373197Y380676D01*
Y383324D01*
X371324Y385197D01*
X370077D01*
X369983Y385238D01*
X369698Y385243D01*
X369445Y385263D01*
X369209Y385297D01*
X368989Y385346D01*
X368784Y385408D01*
X368596Y385482D01*
X368421Y385569D01*
X368369Y385601D01*
X366894Y387077D01*
Y388803D01*
X373197D01*
Y395197D01*
X366894D01*
Y415803D01*
X373197D01*
Y422197D01*
X366894D01*
Y426932D01*
X367355Y427124D01*
X368676Y425803D01*
X371324D01*
X373197Y427676D01*
Y430324D01*
X371324Y432197D01*
X368676D01*
X367355Y430876D01*
X366894Y431068D01*
Y433923D01*
X368369Y435399D01*
X368421Y435431D01*
X368596Y435518D01*
X368784Y435592D01*
X368989Y435654D01*
X369209Y435703D01*
X369445Y435737D01*
X369698Y435757D01*
X369983Y435762D01*
X370077Y435803D01*
X371324D01*
X373197Y437676D01*
Y440324D01*
X371324Y442197D01*
D02*
G37*
G36*
X559750Y428362D02*
X557138D01*
Y425750D01*
X559750D01*
Y428362D01*
D02*
G37*
G36*
Y425250D02*
X557138D01*
Y422638D01*
X559750D01*
Y425250D01*
D02*
G37*
G36*
X441879Y431091D02*
X438121D01*
X435465Y428434D01*
Y424677D01*
X438121Y422020D01*
X441879D01*
X444535Y424677D01*
Y428434D01*
X441879Y431091D01*
D02*
G37*
G36*
X408879D02*
X405121D01*
X402465Y428434D01*
Y424677D01*
X405121Y422020D01*
X408879D01*
X411535Y424677D01*
Y428434D01*
X408879Y431091D01*
D02*
G37*
G36*
X344612Y408697D02*
X343537D01*
Y405750D01*
X346484D01*
Y406824D01*
X344612Y408697D01*
D02*
G37*
G36*
X343037D02*
X341963D01*
X340090Y406824D01*
Y405750D01*
X343037D01*
Y408697D01*
D02*
G37*
G36*
X596059Y427750D02*
X589941D01*
Y424941D01*
X591320D01*
X591368Y424915D01*
X591455Y424906D01*
X591465Y424902D01*
X591473Y424896D01*
X591496Y424872D01*
X591531Y424814D01*
X591573Y424713D01*
X591607Y424587D01*
Y407026D01*
X590370Y405789D01*
X590369Y405789D01*
X590146Y405633D01*
X590018Y405559D01*
X589413D01*
X589371Y405576D01*
X589330Y405559D01*
X589329D01*
X589301Y405566D01*
Y402750D01*
X592117D01*
X592110Y402778D01*
Y402778D01*
X592128Y402820D01*
X592110Y402861D01*
Y403467D01*
X592184Y403595D01*
X592336Y403812D01*
X592346Y403824D01*
X593985Y405464D01*
X594393Y406449D01*
Y424587D01*
X594427Y424713D01*
X594469Y424814D01*
X594504Y424872D01*
X594526Y424896D01*
X594535Y424902D01*
X594545Y424906D01*
X594631Y424915D01*
X594680Y424941D01*
X596059D01*
Y427750D01*
D02*
G37*
G36*
X588801Y405559D02*
X585992D01*
Y402750D01*
X588801D01*
Y405559D01*
D02*
G37*
G36*
X648031D02*
X645497D01*
X643705Y403767D01*
Y401233D01*
X645497Y399441D01*
X648031D01*
X649823Y401233D01*
Y403767D01*
X648031Y405559D01*
D02*
G37*
G36*
X610318D02*
X607784D01*
X605992Y403767D01*
Y401233D01*
X607784Y399441D01*
X610318D01*
X612110Y401233D01*
Y403767D01*
X610318Y405559D01*
D02*
G37*
G36*
X346484Y388697D02*
X340090D01*
Y382303D01*
X346484D01*
Y388697D01*
D02*
G37*
G36*
X530953Y421588D02*
X530882Y421559D01*
X530441D01*
Y421144D01*
X530414Y421091D01*
X530385Y420739D01*
X530305Y420391D01*
X530165Y420002D01*
X529962Y419576D01*
X529694Y419115D01*
X529360Y418620D01*
X529269Y418500D01*
X524885Y414115D01*
X524009Y412000D01*
Y386891D01*
X523547Y386430D01*
Y383570D01*
X525570Y381547D01*
X528430D01*
X530453Y383570D01*
Y386430D01*
X529991Y386891D01*
Y410761D01*
X533499Y414269D01*
X533620Y414360D01*
X534115Y414694D01*
X534576Y414962D01*
X535002Y415165D01*
X535391Y415305D01*
X535739Y415385D01*
X536091Y415414D01*
X536144Y415441D01*
X536559D01*
Y415882D01*
X536588Y415953D01*
X536579Y415975D01*
X536586Y415997D01*
X536559Y416050D01*
Y421559D01*
X531050D01*
X530997Y421586D01*
X530975Y421579D01*
X530953Y421588D01*
D02*
G37*
G36*
X527847Y458752D02*
X525153D01*
X523248Y456847D01*
Y455576D01*
X523207Y455482D01*
X523202Y455187D01*
X523181Y454923D01*
X523146Y454678D01*
X523097Y454450D01*
X523034Y454239D01*
X522959Y454044D01*
X522870Y453865D01*
X522833Y453803D01*
X501715Y432685D01*
X501306Y431700D01*
Y371277D01*
X498935Y368906D01*
X498840Y368849D01*
X498643Y368756D01*
X498427Y368676D01*
X498191Y368609D01*
X497934Y368557D01*
X497655Y368520D01*
X497355Y368499D01*
X497021Y368494D01*
X496926Y368453D01*
X495570D01*
X494055Y366938D01*
X493594Y367130D01*
Y372870D01*
X494055Y373062D01*
X495570Y371547D01*
X498430D01*
X500453Y373570D01*
Y376430D01*
X498430Y378453D01*
X495570D01*
X494055Y376938D01*
X493594Y377130D01*
Y379623D01*
X495280Y381310D01*
X495285Y381313D01*
X495507Y381468D01*
X495646Y381547D01*
X496216D01*
X496286Y381518D01*
X496327Y381535D01*
X496371Y381525D01*
X496408Y381547D01*
X500453D01*
Y388453D01*
X495518D01*
X494905Y389065D01*
Y410784D01*
X494939Y410909D01*
X494980Y411011D01*
X495016Y411069D01*
X495038Y411093D01*
X495047Y411099D01*
X495057Y411102D01*
X495143Y411112D01*
X495192Y411138D01*
X496374D01*
Y416862D01*
X495170D01*
X495144Y416876D01*
X495058Y416886D01*
X495049Y416889D01*
X495040Y416895D01*
X495017Y416919D01*
X494981Y416979D01*
X494939Y417082D01*
X494905Y417209D01*
Y432374D01*
X494950Y432524D01*
X495011Y432680D01*
X495087Y432833D01*
X495177Y432984D01*
X495283Y433133D01*
X495405Y433281D01*
X495557Y433439D01*
X495593Y433534D01*
X496374Y434314D01*
Y436686D01*
X494697Y438362D01*
X492326D01*
X490650Y436686D01*
Y434314D01*
X491430Y433534D01*
X491467Y433439D01*
X491618Y433281D01*
X491741Y433133D01*
X491847Y432984D01*
X491937Y432833D01*
X492012Y432680D01*
X492074Y432524D01*
X492118Y432374D01*
Y417209D01*
X492084Y417082D01*
X492042Y416979D01*
X492006Y416919D01*
X491984Y416895D01*
X491975Y416889D01*
X491966Y416886D01*
X491880Y416876D01*
X491854Y416862D01*
X490650D01*
Y411138D01*
X491832D01*
X491880Y411112D01*
X491967Y411102D01*
X491977Y411099D01*
X491985Y411093D01*
X492007Y411069D01*
X492043Y411011D01*
X492085Y410910D01*
X492118Y410784D01*
Y388488D01*
X492526Y387503D01*
X493547Y386482D01*
Y384408D01*
X493525Y384371D01*
X493535Y384328D01*
X493518Y384286D01*
X493547Y384216D01*
Y383646D01*
X493468Y383507D01*
X493318Y383291D01*
X493302Y383273D01*
X491215Y381185D01*
X490806Y380200D01*
Y342300D01*
X491215Y341315D01*
X502015Y330515D01*
X503000Y330106D01*
X534143D01*
X538387Y325863D01*
X538394Y325852D01*
X538476Y325696D01*
X538545Y325531D01*
X538602Y325354D01*
X538647Y325167D01*
X538679Y324967D01*
X538698Y324755D01*
X538703Y324513D01*
X538744Y324420D01*
Y323267D01*
X540487Y321524D01*
X542953D01*
X544697Y323267D01*
Y325733D01*
X542953Y327476D01*
X541800D01*
X541707Y327517D01*
X541465Y327522D01*
X541253Y327541D01*
X541053Y327573D01*
X540866Y327618D01*
X540690Y327675D01*
X540524Y327745D01*
X540369Y327827D01*
X540357Y327834D01*
X535706Y332485D01*
X534720Y332893D01*
X503577D01*
X493594Y342877D01*
Y352870D01*
X494055Y353062D01*
X494073Y353044D01*
X494357Y352357D01*
X503857Y342857D01*
X506500Y341763D01*
X547993D01*
X549263Y340493D01*
Y326048D01*
X528370Y305155D01*
X528368Y305154D01*
X524857Y301644D01*
X523763Y299001D01*
Y222107D01*
X524857Y219464D01*
X549263Y195059D01*
Y158472D01*
X550357Y155830D01*
X567971Y138216D01*
X567780Y137754D01*
X565741D01*
X563719Y135731D01*
Y132871D01*
X565741Y130848D01*
X568602D01*
X570624Y132871D01*
Y134910D01*
X571086Y135101D01*
X574529Y131658D01*
X575215Y131374D01*
X575741Y130848D01*
X576485D01*
X577171Y130564D01*
X577858Y130848D01*
X578602D01*
X579127Y131374D01*
X579814Y131658D01*
X580098Y132345D01*
X580624Y132871D01*
Y133614D01*
X580909Y134301D01*
X580698Y134810D01*
X581122Y135093D01*
X583719Y132496D01*
Y130848D01*
X585366D01*
X585410Y130805D01*
X585410Y130805D01*
X588052Y129710D01*
X590695Y130805D01*
X591789Y133448D01*
Y133448D01*
X590695Y136090D01*
X590624Y136161D01*
Y137754D01*
X589032D01*
X571351Y155434D01*
X571634Y155858D01*
X572000Y155707D01*
X587197D01*
X606456Y136448D01*
X606522Y136334D01*
X606618Y136127D01*
X606701Y135899D01*
X606769Y135647D01*
X606823Y135373D01*
X606861Y135075D01*
X606883Y134754D01*
X606888Y134397D01*
X606929Y134302D01*
Y132895D01*
X609021Y130803D01*
X610250D01*
Y134374D01*
X610500D01*
Y134624D01*
X614071D01*
Y135853D01*
X611979Y137945D01*
X610572D01*
X610477Y137986D01*
X610120Y137991D01*
X609799Y138013D01*
X609501Y138051D01*
X609227Y138105D01*
X608975Y138173D01*
X608747Y138256D01*
X608540Y138352D01*
X608426Y138418D01*
X588759Y158085D01*
X587774Y158493D01*
X572577D01*
X569203Y161868D01*
X569239Y162177D01*
X569746Y162371D01*
X571070Y161047D01*
X573930D01*
X575953Y163070D01*
Y163722D01*
X588115Y175885D01*
X588991Y178000D01*
Y232165D01*
X589059Y232233D01*
Y234767D01*
X587267Y236559D01*
X584733D01*
X582941Y234767D01*
Y232233D01*
X583008Y232165D01*
Y179239D01*
X571722Y167953D01*
X571070D01*
X569596Y166479D01*
X569134Y166670D01*
Y169163D01*
X571044Y171073D01*
X571070Y171047D01*
X572250D01*
Y174250D01*
X569047D01*
Y173070D01*
X569073Y173044D01*
X566755Y170726D01*
X566347Y169740D01*
Y161360D01*
X566498Y160994D01*
X566074Y160711D01*
X564737Y162048D01*
Y244000D01*
X563643Y246643D01*
X545237Y265048D01*
Y290000D01*
X544143Y292643D01*
X538059Y298726D01*
Y299559D01*
X536637D01*
X535000Y300237D01*
X534538Y300046D01*
X534255Y300470D01*
X555643Y321857D01*
X556737Y324500D01*
Y342041D01*
X555643Y344683D01*
X552183Y348143D01*
X549541Y349237D01*
X508048D01*
X502285Y355000D01*
X516143Y368857D01*
X517237Y371500D01*
Y418500D01*
X516143Y421143D01*
X513500Y422237D01*
X510857Y421143D01*
X509763Y418500D01*
Y373048D01*
X500915Y364200D01*
X500453Y364391D01*
Y364926D01*
X500494Y365021D01*
X500499Y365355D01*
X500520Y365655D01*
X500557Y365934D01*
X500609Y366191D01*
X500676Y366427D01*
X500756Y366644D01*
X500849Y366840D01*
X500906Y366935D01*
X503685Y369715D01*
X504094Y370700D01*
Y431123D01*
X524803Y451833D01*
X524865Y451870D01*
X525044Y451959D01*
X525239Y452035D01*
X525450Y452097D01*
X525678Y452146D01*
X525923Y452181D01*
X526187Y452202D01*
X526482Y452207D01*
X526576Y452248D01*
X527847D01*
X529752Y454153D01*
Y456847D01*
X527847Y458752D01*
D02*
G37*
G36*
X592110Y402250D02*
X585992D01*
Y399441D01*
X587371D01*
X587420Y399415D01*
X587506Y399406D01*
X587516Y399402D01*
X587525Y399396D01*
X587547Y399373D01*
X587582Y399314D01*
X587624Y399213D01*
X587658Y399087D01*
Y391813D01*
X587362Y391100D01*
Y383406D01*
X587328Y383279D01*
X587287Y383175D01*
X587251Y383116D01*
X587228Y383091D01*
X587219Y383086D01*
X587210Y383082D01*
X587124Y383073D01*
X587098Y383059D01*
X585697D01*
Y380250D01*
X591815D01*
Y383059D01*
X590414D01*
X590388Y383073D01*
X590302Y383082D01*
X590293Y383086D01*
X590284Y383091D01*
X590262Y383116D01*
X590225Y383175D01*
X590183Y383279D01*
X590149Y383406D01*
Y390683D01*
X590445Y391395D01*
Y399087D01*
X590478Y399213D01*
X590520Y399314D01*
X590556Y399373D01*
X590578Y399396D01*
X590586Y399402D01*
X590596Y399406D01*
X590683Y399415D01*
X590731Y399441D01*
X592110D01*
Y402250D01*
D02*
G37*
G36*
X563362Y382862D02*
X557638D01*
Y377138D01*
X563362D01*
Y382862D01*
D02*
G37*
G36*
X600023Y383059D02*
X597489D01*
X595697Y381267D01*
Y378733D01*
X597489Y376941D01*
X600023D01*
X601815Y378733D01*
Y381267D01*
X600023Y383059D01*
D02*
G37*
G36*
X528430Y378453D02*
X525570D01*
X523547Y376430D01*
Y373570D01*
X525570Y371547D01*
X528430D01*
X530453Y373570D01*
Y376430D01*
X528430Y378453D01*
D02*
G37*
G36*
X441879Y377980D02*
X438121D01*
X435465Y375323D01*
Y371566D01*
X438121Y368909D01*
X441879D01*
X444535Y371566D01*
Y375323D01*
X441879Y377980D01*
D02*
G37*
G36*
X561686Y372862D02*
X559314D01*
X557638Y371186D01*
Y368814D01*
X559314Y367138D01*
X561686D01*
X563362Y368814D01*
Y371186D01*
X561686Y372862D01*
D02*
G37*
G36*
X528430Y358453D02*
X527250D01*
Y355250D01*
X530453D01*
Y356430D01*
X528430Y358453D01*
D02*
G37*
G36*
X526750D02*
X525570D01*
X523547Y356430D01*
Y355250D01*
X526750D01*
Y358453D01*
D02*
G37*
G36*
X344612Y358197D02*
X341963D01*
X340090Y356324D01*
Y353676D01*
X341963Y351803D01*
X344612D01*
X346484Y353676D01*
Y356324D01*
X344612Y358197D01*
D02*
G37*
G36*
X530453Y354750D02*
X527250D01*
Y351547D01*
X528430D01*
X530453Y353570D01*
Y354750D01*
D02*
G37*
G36*
X526750D02*
X523547D01*
Y353570D01*
X525570Y351547D01*
X526750D01*
Y354750D01*
D02*
G37*
G36*
X591815Y379750D02*
X585678D01*
X585685Y379721D01*
X585668Y379680D01*
X585697Y379609D01*
Y379040D01*
X585617Y378900D01*
X585467Y378685D01*
X585452Y378667D01*
X577115Y370329D01*
X576707Y369344D01*
Y180677D01*
X573956Y177927D01*
X573930Y177953D01*
X572750D01*
Y174750D01*
X575953D01*
Y175930D01*
X575927Y175956D01*
X579085Y179115D01*
X579494Y180100D01*
Y354784D01*
X579502Y354787D01*
X579981Y354865D01*
X580202Y354568D01*
X580228Y354498D01*
X580250Y354421D01*
Y301636D01*
X580658Y300651D01*
X585371Y295938D01*
X585179Y295476D01*
X583488D01*
X581744Y293733D01*
Y291267D01*
X582559Y290452D01*
X582596Y290357D01*
X582764Y290182D01*
X582900Y290019D01*
X583019Y289855D01*
X583120Y289691D01*
X583204Y289526D01*
X583272Y289360D01*
X583324Y289192D01*
X583327Y289179D01*
Y281700D01*
X583735Y280715D01*
X583827Y280623D01*
Y273821D01*
X583824Y273808D01*
X583772Y273640D01*
X583704Y273474D01*
X583620Y273309D01*
X583519Y273145D01*
X583400Y272981D01*
X583263Y272817D01*
X583096Y272643D01*
X583059Y272548D01*
X582244Y271733D01*
Y269267D01*
X583988Y267524D01*
X586453D01*
X588197Y269267D01*
Y271733D01*
X587382Y272548D01*
X587345Y272643D01*
X587177Y272818D01*
X587040Y272981D01*
X586922Y273145D01*
X586821Y273309D01*
X586737Y273474D01*
X586669Y273640D01*
X586617Y273808D01*
X586614Y273821D01*
Y281200D01*
X586206Y282185D01*
X586114Y282277D01*
Y289179D01*
X586117Y289192D01*
X586169Y289360D01*
X586237Y289526D01*
X586321Y289691D01*
X586422Y289855D01*
X586540Y290019D01*
X586677Y290182D01*
X586845Y290357D01*
X586882Y290452D01*
X587697Y291267D01*
Y292959D01*
X588159Y293150D01*
X609446Y271863D01*
X609453Y271852D01*
X609535Y271696D01*
X609605Y271531D01*
X609662Y271354D01*
X609706Y271167D01*
X609738Y270967D01*
X609757Y270755D01*
X609762Y270513D01*
X609803Y270420D01*
Y269267D01*
X611547Y267524D01*
X614012D01*
X614828Y268339D01*
X614923Y268376D01*
X615097Y268543D01*
X615260Y268680D01*
X615424Y268799D01*
X615588Y268899D01*
X615754Y268984D01*
X615920Y269051D01*
X616088Y269104D01*
X616101Y269107D01*
X620923D01*
X637595Y252435D01*
Y247321D01*
X637592Y247308D01*
X637539Y247140D01*
X637472Y246974D01*
X637388Y246809D01*
X637287Y246645D01*
X637168Y246481D01*
X637031Y246318D01*
X636864Y246143D01*
X636827Y246048D01*
X636012Y245233D01*
Y242767D01*
X637755Y241024D01*
X640221D01*
X641965Y242767D01*
Y245233D01*
X641149Y246048D01*
X641112Y246143D01*
X640945Y246318D01*
X640808Y246481D01*
X640690Y246645D01*
X640589Y246809D01*
X640505Y246974D01*
X640437Y247140D01*
X640384Y247308D01*
X640382Y247321D01*
Y253012D01*
X639973Y253997D01*
X622485Y271485D01*
X621500Y271894D01*
X616101D01*
X616088Y271896D01*
X615920Y271949D01*
X615753Y272017D01*
X615588Y272100D01*
X615424Y272201D01*
X615260Y272320D01*
X615097Y272457D01*
X614923Y272624D01*
X614828Y272661D01*
X614012Y273476D01*
X612860D01*
X612766Y273517D01*
X612525Y273522D01*
X612312Y273541D01*
X612113Y273573D01*
X611925Y273618D01*
X611749Y273675D01*
X611584Y273745D01*
X611428Y273827D01*
X611416Y273834D01*
X583037Y302214D01*
Y354421D01*
X583059Y354498D01*
X583092Y354589D01*
X583130Y354668D01*
X583171Y354736D01*
X583215Y354796D01*
X583282Y354869D01*
X583315Y354959D01*
X583915Y355559D01*
Y357441D01*
X582584Y358772D01*
X580702D01*
X579955Y358025D01*
X579494Y358216D01*
Y368767D01*
X586863Y376136D01*
X587362Y375929D01*
Y365395D01*
X587368Y365381D01*
X587363Y365368D01*
X587589Y353957D01*
X587233Y353559D01*
X585992D01*
Y350750D01*
X592110D01*
Y353559D01*
X590659D01*
X590633Y353573D01*
X590546Y353582D01*
X590534Y353587D01*
X590523Y353594D01*
X590497Y353621D01*
X590459Y353683D01*
X590414Y353788D01*
X590377Y353916D01*
X590149Y365409D01*
Y376587D01*
X590183Y376713D01*
X590225Y376814D01*
X590260Y376872D01*
X590282Y376896D01*
X590291Y376902D01*
X590301Y376906D01*
X590387Y376915D01*
X590436Y376941D01*
X591815D01*
Y379750D01*
D02*
G37*
G36*
X632847Y458752D02*
X630153D01*
X628248Y456847D01*
Y454153D01*
X629147Y453254D01*
X629184Y453159D01*
X629389Y452946D01*
X629561Y452746D01*
X629710Y452547D01*
X629837Y452351D01*
X629941Y452158D01*
X630025Y451966D01*
X630090Y451777D01*
X630106Y451707D01*
Y356236D01*
X630515Y355251D01*
X633801Y351964D01*
X633818Y351937D01*
X633902Y351774D01*
X633974Y351600D01*
X634033Y351414D01*
X634079Y351214D01*
X634112Y351000D01*
X634131Y350773D01*
X634136Y350515D01*
X634177Y350421D01*
Y349233D01*
X635969Y347441D01*
X638503D01*
X640295Y349233D01*
Y351767D01*
X638503Y353559D01*
X637315D01*
X637221Y353600D01*
X636964Y353605D01*
X636736Y353624D01*
X636522Y353657D01*
X636323Y353703D01*
X636136Y353762D01*
X635962Y353834D01*
X635799Y353918D01*
X635772Y353935D01*
X632894Y356813D01*
Y451707D01*
X632910Y451777D01*
X632974Y451966D01*
X633059Y452158D01*
X633163Y452351D01*
X633290Y452547D01*
X633439Y452746D01*
X633610Y452946D01*
X633816Y453159D01*
X633853Y453254D01*
X634752Y454153D01*
Y456847D01*
X632847Y458752D01*
D02*
G37*
G36*
X408879Y377980D02*
X405121D01*
X402465Y375323D01*
Y371566D01*
X403746Y370285D01*
X403781Y370192D01*
X404501Y369427D01*
X404785Y369079D01*
X405031Y368741D01*
X405235Y368418D01*
X405398Y368112D01*
X405521Y367823D01*
X405606Y367553D01*
X405607Y367548D01*
Y362357D01*
X402515Y359265D01*
X402107Y358280D01*
Y352220D01*
X402515Y351235D01*
X402949Y350801D01*
X403026Y350666D01*
X403096Y350517D01*
X403149Y350368D01*
X403187Y350219D01*
X403210Y350067D01*
X403219Y349911D01*
X403212Y349726D01*
X403216Y349716D01*
X403211Y349706D01*
X403244Y349627D01*
Y348267D01*
X404987Y346524D01*
X407453D01*
X409197Y348267D01*
Y350733D01*
X407453Y352476D01*
X406093D01*
X406014Y352509D01*
X406004Y352505D01*
X405994Y352509D01*
X405809Y352502D01*
X405654Y352510D01*
X405502Y352534D01*
X405352Y352572D01*
X405203Y352625D01*
X405054Y352694D01*
X404919Y352771D01*
X404893Y352798D01*
Y357702D01*
X407985Y360794D01*
X408393Y361780D01*
Y367548D01*
X408394Y367553D01*
X408479Y367823D01*
X408602Y368112D01*
X408765Y368418D01*
X408969Y368741D01*
X409211Y369074D01*
X409836Y369802D01*
X410211Y370184D01*
X410250Y370281D01*
X411535Y371566D01*
Y375323D01*
X408879Y377980D01*
D02*
G37*
G36*
X344612Y348197D02*
X341963D01*
X340090Y346324D01*
Y343676D01*
X341963Y341803D01*
X344612D01*
X346484Y343676D01*
Y346324D01*
X344612Y348197D01*
D02*
G37*
G36*
X346484Y338197D02*
X340090D01*
Y331803D01*
X346484D01*
Y338197D01*
D02*
G37*
G36*
X369750Y329197D02*
X366803D01*
Y326250D01*
X369750D01*
Y329197D01*
D02*
G37*
G36*
X454953Y327476D02*
X453970D01*
Y324750D01*
X456697D01*
Y325733D01*
X454953Y327476D01*
D02*
G37*
G36*
X453470D02*
X452488D01*
X450744Y325733D01*
Y324750D01*
X453470D01*
Y327476D01*
D02*
G37*
G36*
X369750Y325750D02*
X366803D01*
Y322803D01*
X369750D01*
Y325750D01*
D02*
G37*
G36*
X592110Y350250D02*
X585992D01*
Y347441D01*
X587371D01*
X587420Y347415D01*
X587506Y347406D01*
X587516Y347402D01*
X587525Y347396D01*
X587547Y347373D01*
X587582Y347314D01*
X587624Y347213D01*
X587658Y347087D01*
Y336575D01*
X587461Y336100D01*
Y325209D01*
X587427Y325082D01*
X587385Y324979D01*
X587349Y324919D01*
X587326Y324895D01*
X587318Y324889D01*
X587308Y324886D01*
X587222Y324876D01*
X587196Y324862D01*
X585992D01*
Y322250D01*
X591717D01*
Y324862D01*
X590512D01*
X590486Y324876D01*
X590401Y324886D01*
X590391Y324889D01*
X590382Y324895D01*
X590360Y324919D01*
X590324Y324978D01*
X590282Y325082D01*
X590248Y325209D01*
Y335822D01*
X590445Y336297D01*
Y347087D01*
X590478Y347213D01*
X590520Y347314D01*
X590556Y347373D01*
X590578Y347396D01*
X590586Y347402D01*
X590596Y347406D01*
X590683Y347415D01*
X590731Y347441D01*
X592110D01*
Y350250D01*
D02*
G37*
G36*
X477071Y458669D02*
X469929D01*
Y451528D01*
X474211D01*
X474247Y451505D01*
X474291Y451515D01*
X474332Y451498D01*
X474402Y451528D01*
X474972D01*
X475111Y451448D01*
X475327Y451298D01*
X475345Y451283D01*
X479886Y446742D01*
Y327821D01*
X479883Y327808D01*
X479831Y327640D01*
X479763Y327474D01*
X479679Y327309D01*
X479578Y327145D01*
X479460Y326981D01*
X479323Y326817D01*
X479155Y326643D01*
X479118Y326548D01*
X478303Y325733D01*
Y323267D01*
X480047Y321524D01*
X482513D01*
X484256Y323267D01*
Y325733D01*
X483441Y326548D01*
X483404Y326643D01*
X483236Y326818D01*
X483100Y326981D01*
X482981Y327145D01*
X482880Y327309D01*
X482796Y327474D01*
X482728Y327640D01*
X482676Y327808D01*
X482673Y327821D01*
Y447319D01*
X482265Y448304D01*
X477308Y453261D01*
X477305Y453265D01*
X477150Y453487D01*
X477071Y453626D01*
Y454196D01*
X477100Y454267D01*
X477083Y454308D01*
X477093Y454351D01*
X477071Y454388D01*
Y458669D01*
D02*
G37*
G36*
X456697Y324250D02*
X453970D01*
Y321524D01*
X454953D01*
X456697Y323267D01*
Y324250D01*
D02*
G37*
G36*
X453470D02*
X450744D01*
Y323267D01*
X452488Y321524D01*
X453470D01*
Y324250D01*
D02*
G37*
G36*
X408953Y327476D02*
X406488D01*
X404744Y325733D01*
Y323267D01*
X406488Y321524D01*
X408953D01*
X410697Y323267D01*
Y325733D01*
X408953Y327476D01*
D02*
G37*
G36*
X665874Y431059D02*
X659756D01*
Y424941D01*
X661135D01*
X661184Y424915D01*
X661270Y424906D01*
X661280Y424902D01*
X661289Y424896D01*
X661311Y424872D01*
X661346Y424814D01*
X661388Y424713D01*
X661421Y424587D01*
Y406449D01*
X661830Y405464D01*
X663475Y403818D01*
X663475Y403818D01*
X663631Y403595D01*
X663705Y403467D01*
Y402861D01*
X663688Y402820D01*
X663705Y402778D01*
Y402778D01*
X663694Y402734D01*
X663705Y402717D01*
Y399441D01*
X665084D01*
X665132Y399415D01*
X665219Y399406D01*
X665229Y399402D01*
X665237Y399396D01*
X665259Y399373D01*
X665295Y399314D01*
X665337Y399213D01*
X665370Y399087D01*
Y391395D01*
X665665Y390683D01*
Y383406D01*
X665631Y383279D01*
X665590Y383175D01*
X665554Y383116D01*
X665531Y383091D01*
X665522Y383086D01*
X665513Y383082D01*
X665427Y383073D01*
X665401Y383059D01*
X664000D01*
Y376941D01*
X665379D01*
X665427Y376915D01*
X665514Y376906D01*
X665524Y376902D01*
X665532Y376896D01*
X665555Y376872D01*
X665590Y376814D01*
X665632Y376713D01*
X665665Y376587D01*
Y365813D01*
X665370Y365100D01*
Y353906D01*
X665336Y353779D01*
X665294Y353675D01*
X665258Y353616D01*
X665236Y353591D01*
X665227Y353586D01*
X665218Y353582D01*
X665132Y353573D01*
X665106Y353559D01*
X663705D01*
Y347441D01*
X665084D01*
X665132Y347415D01*
X665219Y347406D01*
X665229Y347402D01*
X665237Y347396D01*
X665259Y347373D01*
X665295Y347314D01*
X665337Y347213D01*
X665370Y347087D01*
Y336297D01*
X665567Y335822D01*
Y325209D01*
X665533Y325082D01*
X665491Y324979D01*
X665455Y324919D01*
X665433Y324895D01*
X665424Y324889D01*
X665414Y324886D01*
X665329Y324876D01*
X665303Y324862D01*
X664098D01*
Y319138D01*
X669823D01*
Y324862D01*
X668618D01*
X668593Y324876D01*
X668507Y324886D01*
X668497Y324889D01*
X668489Y324895D01*
X668466Y324919D01*
X668430Y324978D01*
X668388Y325082D01*
X668354Y325209D01*
Y336100D01*
X668157Y336575D01*
Y347087D01*
X668191Y347213D01*
X668232Y347314D01*
X668268Y347373D01*
X668290Y347396D01*
X668299Y347402D01*
X668309Y347406D01*
X668395Y347415D01*
X668443Y347441D01*
X669823D01*
Y353559D01*
X668422D01*
X668396Y353573D01*
X668310Y353582D01*
X668300Y353586D01*
X668292Y353591D01*
X668269Y353616D01*
X668233Y353675D01*
X668191Y353779D01*
X668157Y353906D01*
Y364683D01*
X668453Y365395D01*
Y376587D01*
X668486Y376713D01*
X668528Y376814D01*
X668563Y376872D01*
X668585Y376896D01*
X668594Y376902D01*
X668604Y376906D01*
X668690Y376915D01*
X668739Y376941D01*
X670118D01*
Y383059D01*
X668717D01*
X668691Y383073D01*
X668605Y383082D01*
X668596Y383086D01*
X668587Y383091D01*
X668565Y383116D01*
X668528Y383175D01*
X668486Y383279D01*
X668453Y383406D01*
Y391100D01*
X668157Y391813D01*
Y399087D01*
X668191Y399213D01*
X668232Y399314D01*
X668268Y399373D01*
X668290Y399396D01*
X668299Y399402D01*
X668309Y399406D01*
X668395Y399415D01*
X668443Y399441D01*
X669823D01*
Y405559D01*
X666546D01*
X666530Y405569D01*
X666486Y405559D01*
X666485D01*
X666444Y405576D01*
X666402Y405559D01*
X665797D01*
X665668Y405633D01*
X665452Y405784D01*
X665440Y405795D01*
X664209Y407026D01*
Y424587D01*
X664242Y424713D01*
X664284Y424814D01*
X664319Y424872D01*
X664341Y424896D01*
X664350Y424902D01*
X664360Y424906D01*
X664446Y424915D01*
X664495Y424941D01*
X665874D01*
Y431059D01*
D02*
G37*
G36*
X344612Y302197D02*
X341963D01*
X340090Y300324D01*
Y297676D01*
X341963Y295803D01*
X344612D01*
X346484Y297676D01*
Y300324D01*
X344612Y302197D01*
D02*
G37*
G36*
X373197Y301197D02*
X366803D01*
Y294803D01*
X373197D01*
Y301197D01*
D02*
G37*
G36*
X460559Y299559D02*
X454441D01*
Y293441D01*
X460559D01*
Y299559D01*
D02*
G37*
G36*
X615256Y292250D02*
X612530D01*
Y289524D01*
X613513D01*
X615256Y291267D01*
Y292250D01*
D02*
G37*
G36*
X344612Y292197D02*
X341963D01*
X340090Y290324D01*
Y287676D01*
X341963Y285803D01*
X344612D01*
X346484Y287676D01*
Y290324D01*
X344612Y292197D01*
D02*
G37*
G36*
X371324Y291197D02*
X368676D01*
X366803Y289324D01*
Y286676D01*
X368676Y284803D01*
X371324D01*
X373197Y286676D01*
Y289324D01*
X371324Y291197D01*
D02*
G37*
G36*
X373197Y325750D02*
X370250D01*
Y322803D01*
X370337D01*
X370373Y322781D01*
X370417Y322791D01*
X370458Y322774D01*
X370528Y322803D01*
X371098D01*
X371237Y322724D01*
X371453Y322574D01*
X371471Y322558D01*
X406949Y287080D01*
Y282209D01*
X406915Y282082D01*
X406873Y281979D01*
X406837Y281919D01*
X406815Y281895D01*
X406806Y281889D01*
X406797Y281886D01*
X406711Y281876D01*
X406685Y281862D01*
X405480D01*
Y279250D01*
X408343D01*
X411205D01*
Y281862D01*
X410001D01*
X409974Y281876D01*
X409889Y281886D01*
X409879Y281889D01*
X409871Y281895D01*
X409848Y281919D01*
X409812Y281979D01*
X409770Y282082D01*
X409736Y282209D01*
Y287657D01*
X409328Y288643D01*
X373434Y324536D01*
X373431Y324541D01*
X373276Y324763D01*
X373197Y324902D01*
Y325472D01*
X373226Y325542D01*
X373209Y325583D01*
X373219Y325627D01*
X373197Y325663D01*
Y325750D01*
D02*
G37*
G36*
X408093Y278750D02*
X406119D01*
X408093Y276777D01*
Y278750D01*
D02*
G37*
G36*
X411205D02*
X408593D01*
Y276138D01*
X411205D01*
Y278750D01*
D02*
G37*
G36*
X346484Y282197D02*
X340090D01*
Y275803D01*
X346484D01*
Y282197D01*
D02*
G37*
G36*
X371324Y281197D02*
X368676D01*
X366803Y279324D01*
Y276676D01*
X368676Y274803D01*
X371324D01*
X373197Y276676D01*
Y279324D01*
X371324Y281197D01*
D02*
G37*
G36*
X478767Y299559D02*
X476233D01*
X474441Y297767D01*
Y295233D01*
X476233Y293441D01*
X476328D01*
X481008Y288761D01*
Y270736D01*
X480499Y270227D01*
X476422Y266953D01*
X476165Y266953D01*
X475683Y267550D01*
X475681Y267549D01*
X475798Y267403D01*
X475581Y266953D01*
X474070D01*
X472047Y264930D01*
Y262070D01*
X474070Y260047D01*
X476930D01*
X477735Y260852D01*
X477813Y260885D01*
X478768Y261163D01*
X479630Y261856D01*
X479888Y262005D01*
X480073Y262107D01*
X480073Y262107D01*
X480386Y262462D01*
X484372Y265664D01*
X484455Y265815D01*
X484615Y265881D01*
X486115Y267381D01*
X486992Y269497D01*
Y290000D01*
X486115Y292115D01*
X484789Y293441D01*
X484789Y293441D01*
X480559Y297672D01*
Y297767D01*
X478767Y299559D01*
D02*
G37*
G36*
X640221Y269476D02*
X637755D01*
X636012Y267733D01*
Y265267D01*
X637755Y263524D01*
X640221D01*
X641965Y265267D01*
Y267733D01*
X640221Y269476D01*
D02*
G37*
G36*
X514953Y266953D02*
X508047D01*
Y260047D01*
X514953D01*
Y266953D01*
D02*
G37*
G36*
X413055Y253559D02*
X410246D01*
Y250750D01*
X413055D01*
Y253559D01*
D02*
G37*
G36*
X406083Y278750D02*
X405480D01*
Y278237D01*
X405401Y278097D01*
X405251Y277882D01*
X405235Y277864D01*
X403555Y276183D01*
X403147Y275198D01*
Y255955D01*
X403555Y254970D01*
X406707Y251818D01*
X406707Y251818D01*
X406863Y251595D01*
X406937Y251467D01*
Y250862D01*
X406920Y250820D01*
X406937Y250778D01*
Y250778D01*
X406930Y250750D01*
X409746D01*
Y253566D01*
X409718Y253559D01*
X409718D01*
X409676Y253576D01*
X409634Y253559D01*
X409029D01*
X408901Y253633D01*
X408684Y253784D01*
X408672Y253795D01*
X405934Y256533D01*
Y274621D01*
X407213Y275900D01*
X407218Y275904D01*
X407440Y276058D01*
X407579Y276138D01*
X408093D01*
Y276740D01*
X407952Y276783D01*
X407785D01*
X407596Y276739D01*
X407384Y276650D01*
X407151Y276516D01*
X406894Y276338D01*
X406616Y276115D01*
X405992Y275536D01*
X404879Y276650D01*
X405191Y276973D01*
X405681Y277552D01*
X405859Y277808D01*
X405992Y278042D01*
X406081Y278253D01*
X406126Y278443D01*
Y278610D01*
X406083Y278750D01*
D02*
G37*
G36*
X512930Y256953D02*
X510070D01*
X508047Y254930D01*
Y252070D01*
X510070Y250047D01*
X512930D01*
X514953Y252070D01*
Y254930D01*
X512930Y256953D01*
D02*
G37*
G36*
X497953Y327476D02*
X495487D01*
X493744Y325733D01*
Y323267D01*
X494559Y322452D01*
X494596Y322357D01*
X494764Y322182D01*
X494901Y322019D01*
X495019Y321855D01*
X495120Y321691D01*
X495204Y321526D01*
X495272Y321360D01*
X495324Y321192D01*
X495327Y321179D01*
Y275298D01*
X477435Y257406D01*
X477340Y257349D01*
X477143Y257256D01*
X476927Y257176D01*
X476691Y257109D01*
X476434Y257057D01*
X476155Y257020D01*
X475855Y256999D01*
X475521Y256994D01*
X475426Y256953D01*
X474070D01*
X472047Y254930D01*
Y252070D01*
X474070Y250047D01*
X476930D01*
X478953Y252070D01*
Y253426D01*
X478994Y253521D01*
X478999Y253855D01*
X479020Y254155D01*
X479057Y254434D01*
X479109Y254691D01*
X479176Y254927D01*
X479256Y255143D01*
X479349Y255340D01*
X479406Y255435D01*
X497706Y273735D01*
X498114Y274720D01*
Y321179D01*
X498117Y321192D01*
X498169Y321360D01*
X498237Y321526D01*
X498321Y321691D01*
X498422Y321855D01*
X498540Y322019D01*
X498677Y322182D01*
X498845Y322357D01*
X498882Y322452D01*
X499697Y323267D01*
Y325733D01*
X497953Y327476D01*
D02*
G37*
G36*
X402441Y400772D02*
X400559D01*
X399228Y399441D01*
Y397559D01*
X400559Y396228D01*
X402441D01*
X402937Y396725D01*
X403004Y396744D01*
X403082Y396806D01*
X403148Y396848D01*
X403223Y396888D01*
X403309Y396924D01*
X403407Y396956D01*
X403471Y396973D01*
X405057D01*
X412107Y389923D01*
Y307357D01*
X410083Y305334D01*
X410072Y305327D01*
X409916Y305245D01*
X409751Y305175D01*
X409575Y305118D01*
X409387Y305073D01*
X409188Y305041D01*
X408975Y305023D01*
X408734Y305017D01*
X408640Y304976D01*
X407487D01*
X405744Y303233D01*
Y300767D01*
X407487Y299024D01*
X408640D01*
X408734Y298983D01*
X408975Y298977D01*
X409188Y298959D01*
X409387Y298927D01*
X409575Y298882D01*
X409751Y298825D01*
X409916Y298755D01*
X410072Y298673D01*
X410083Y298666D01*
X439306Y269443D01*
Y248300D01*
X439715Y247315D01*
X441594Y245435D01*
X441651Y245340D01*
X441744Y245143D01*
X441824Y244927D01*
X441890Y244691D01*
X441943Y244434D01*
X441980Y244155D01*
X442001Y243855D01*
X442006Y243521D01*
X442047Y243426D01*
Y242070D01*
X444070Y240047D01*
X446930D01*
X448953Y242070D01*
Y244930D01*
X446930Y246953D01*
X445574D01*
X445479Y246994D01*
X445145Y246999D01*
X444845Y247020D01*
X444566Y247057D01*
X444309Y247110D01*
X444073Y247176D01*
X443856Y247256D01*
X443660Y247349D01*
X443565Y247406D01*
X442094Y248877D01*
Y251370D01*
X442555Y251562D01*
X444070Y250047D01*
X446930D01*
X448953Y252070D01*
Y254930D01*
X446930Y256953D01*
X444070D01*
X442555Y255438D01*
X442094Y255630D01*
Y260047D01*
X448953D01*
Y266953D01*
X447158D01*
X447132Y266967D01*
X447046Y266976D01*
X447037Y266979D01*
X447028Y266985D01*
X447006Y267010D01*
X446969Y267069D01*
X446927Y267172D01*
X446894Y267300D01*
Y278409D01*
X446485Y279394D01*
X437673Y288207D01*
Y298679D01*
X437676Y298692D01*
X437728Y298860D01*
X437796Y299026D01*
X437880Y299191D01*
X437981Y299355D01*
X438099Y299519D01*
X438237Y299682D01*
X438404Y299857D01*
X438441Y299952D01*
X439256Y300767D01*
Y302127D01*
X439289Y302206D01*
X439284Y302216D01*
X439288Y302226D01*
X439281Y302411D01*
X439290Y302567D01*
X439313Y302719D01*
X439351Y302869D01*
X439404Y303017D01*
X439474Y303166D01*
X439551Y303301D01*
X439985Y303735D01*
X440393Y304720D01*
Y320780D01*
X439985Y321765D01*
X438613Y323137D01*
X438606Y323148D01*
X438524Y323304D01*
X438455Y323469D01*
X438398Y323646D01*
X438353Y323833D01*
X438321Y324033D01*
X438302Y324245D01*
X438297Y324487D01*
X438256Y324580D01*
Y325733D01*
X436513Y327476D01*
X435360D01*
X435266Y327517D01*
X435025Y327522D01*
X434812Y327541D01*
X434613Y327573D01*
X434425Y327618D01*
X434249Y327675D01*
X434084Y327745D01*
X433928Y327827D01*
X433917Y327834D01*
X431393Y330357D01*
Y345143D01*
X432416Y346166D01*
X432428Y346173D01*
X432584Y346255D01*
X432749Y346325D01*
X432925Y346382D01*
X433112Y346427D01*
X433312Y346459D01*
X433525Y346478D01*
X433766Y346483D01*
X433860Y346524D01*
X435012D01*
X436756Y348267D01*
Y350733D01*
X435012Y352476D01*
X432547D01*
X430803Y350733D01*
Y349580D01*
X430762Y349487D01*
X430757Y349245D01*
X430738Y349033D01*
X430707Y348833D01*
X430662Y348645D01*
X430605Y348469D01*
X430535Y348304D01*
X430453Y348148D01*
X430446Y348137D01*
X429015Y346706D01*
X428607Y345720D01*
Y329780D01*
X429015Y328794D01*
X431946Y325863D01*
X431953Y325852D01*
X432035Y325696D01*
X432104Y325531D01*
X432162Y325354D01*
X432206Y325167D01*
X432238Y324967D01*
X432257Y324755D01*
X432262Y324513D01*
X432303Y324420D01*
Y323267D01*
X434047Y321524D01*
X435200D01*
X435293Y321483D01*
X435535Y321478D01*
X435747Y321459D01*
X435947Y321427D01*
X436134Y321382D01*
X436310Y321325D01*
X436476Y321255D01*
X436631Y321173D01*
X436643Y321166D01*
X437606Y320202D01*
Y305298D01*
X437580Y305272D01*
X437446Y305194D01*
X437297Y305125D01*
X437148Y305072D01*
X436998Y305034D01*
X436846Y305010D01*
X436691Y305002D01*
X436506Y305009D01*
X436496Y305005D01*
X436486Y305009D01*
X436407Y304976D01*
X435047D01*
X433303Y303233D01*
Y300767D01*
X434118Y299952D01*
X434155Y299857D01*
X434323Y299682D01*
X434460Y299519D01*
X434578Y299355D01*
X434679Y299191D01*
X434763Y299026D01*
X434831Y298860D01*
X434883Y298692D01*
X434886Y298679D01*
Y287629D01*
X435294Y286644D01*
X444106Y277832D01*
Y267300D01*
X444072Y267172D01*
X444031Y267069D01*
X443995Y267010D01*
X443972Y266985D01*
X443963Y266979D01*
X443954Y266976D01*
X443868Y266967D01*
X443842Y266953D01*
X442094D01*
Y270020D01*
X441685Y271006D01*
X412054Y300637D01*
X412047Y300648D01*
X411965Y300804D01*
X411896Y300970D01*
X411838Y301146D01*
X411794Y301333D01*
X411762Y301533D01*
X411743Y301745D01*
X411738Y301987D01*
X411732Y302000D01*
X411738Y302013D01*
X411743Y302255D01*
X411762Y302467D01*
X411794Y302667D01*
X411838Y302854D01*
X411896Y303030D01*
X411965Y303196D01*
X412047Y303352D01*
X412054Y303363D01*
X414485Y305794D01*
X414893Y306780D01*
Y390500D01*
X414485Y391485D01*
X406619Y399352D01*
X405634Y399760D01*
X403664D01*
X403583Y399785D01*
X403500Y399819D01*
X403428Y399857D01*
X403368Y399898D01*
X403315Y399942D01*
X403249Y400012D01*
X403160Y400052D01*
X402441Y400772D01*
D02*
G37*
G36*
X346453Y256453D02*
X339547D01*
Y249547D01*
X346453D01*
Y256453D01*
D02*
G37*
G36*
X409746Y250250D02*
X406937D01*
Y247441D01*
X409746D01*
Y250250D01*
D02*
G37*
G36*
X391263Y253559D02*
X388729D01*
X386937Y251767D01*
Y249233D01*
X388729Y247441D01*
X391263D01*
X393055Y249233D01*
Y251767D01*
X391263Y253559D01*
D02*
G37*
G36*
X667780Y292476D02*
X665314D01*
X663571Y290733D01*
Y288267D01*
X664386Y287452D01*
X664423Y287357D01*
X664590Y287182D01*
X664727Y287019D01*
X664846Y286855D01*
X664947Y286691D01*
X665031Y286526D01*
X665098Y286360D01*
X665151Y286192D01*
X665154Y286179D01*
Y269821D01*
X665151Y269808D01*
X665098Y269640D01*
X665031Y269474D01*
X664947Y269309D01*
X664846Y269145D01*
X664727Y268981D01*
X664590Y268817D01*
X664423Y268643D01*
X664386Y268548D01*
X663571Y267733D01*
Y265267D01*
X664386Y264452D01*
X664423Y264357D01*
X664590Y264182D01*
X664727Y264019D01*
X664846Y263855D01*
X664947Y263691D01*
X665031Y263526D01*
X665098Y263360D01*
X665151Y263192D01*
X665154Y263179D01*
Y247321D01*
X665151Y247308D01*
X665098Y247140D01*
X665031Y246974D01*
X664947Y246809D01*
X664846Y246645D01*
X664727Y246481D01*
X664590Y246318D01*
X664423Y246143D01*
X664386Y246048D01*
X663571Y245233D01*
Y242767D01*
X665314Y241024D01*
X667780D01*
X669524Y242767D01*
Y245233D01*
X668708Y246048D01*
X668671Y246143D01*
X668504Y246318D01*
X668367Y246481D01*
X668249Y246645D01*
X668148Y246809D01*
X668064Y246974D01*
X667996Y247140D01*
X667943Y247308D01*
X667941Y247321D01*
Y263179D01*
X667943Y263192D01*
X667996Y263360D01*
X668064Y263526D01*
X668148Y263691D01*
X668249Y263855D01*
X668367Y264019D01*
X668504Y264182D01*
X668671Y264357D01*
X668708Y264452D01*
X669524Y265267D01*
Y267733D01*
X668708Y268548D01*
X668671Y268643D01*
X668504Y268818D01*
X668367Y268981D01*
X668249Y269145D01*
X668148Y269309D01*
X668064Y269474D01*
X667996Y269640D01*
X667943Y269808D01*
X667941Y269821D01*
Y286179D01*
X667943Y286192D01*
X667996Y286360D01*
X668064Y286526D01*
X668148Y286691D01*
X668249Y286855D01*
X668367Y287019D01*
X668504Y287182D01*
X668671Y287357D01*
X668708Y287452D01*
X669524Y288267D01*
Y290733D01*
X667780Y292476D01*
D02*
G37*
G36*
X512930Y246953D02*
X510070D01*
X508047Y244930D01*
Y242070D01*
X510070Y240047D01*
X512930D01*
X514953Y242070D01*
Y244930D01*
X512930Y246953D01*
D02*
G37*
G36*
X525513Y327476D02*
X523047D01*
X521303Y325733D01*
Y324580D01*
X521262Y324487D01*
X521257Y324245D01*
X521239Y324033D01*
X521207Y323833D01*
X521162Y323645D01*
X521104Y323469D01*
X521035Y323304D01*
X520953Y323148D01*
X520946Y323137D01*
X504115Y306306D01*
X503707Y305320D01*
Y273677D01*
X477435Y247406D01*
X477340Y247349D01*
X477143Y247256D01*
X476927Y247176D01*
X476691Y247110D01*
X476434Y247057D01*
X476155Y247020D01*
X475855Y246999D01*
X475521Y246994D01*
X475426Y246953D01*
X474070D01*
X472047Y244930D01*
Y242070D01*
X474070Y240047D01*
X476930D01*
X478953Y242070D01*
Y243426D01*
X478994Y243521D01*
X478999Y243855D01*
X479020Y244155D01*
X479057Y244434D01*
X479109Y244691D01*
X479176Y244927D01*
X479256Y245144D01*
X479349Y245340D01*
X479406Y245435D01*
X506085Y272115D01*
X506494Y273100D01*
Y304743D01*
X522917Y321166D01*
X522928Y321173D01*
X523084Y321255D01*
X523249Y321325D01*
X523425Y321382D01*
X523612Y321427D01*
X523812Y321459D01*
X524025Y321478D01*
X524266Y321483D01*
X524360Y321524D01*
X525513D01*
X527256Y323267D01*
Y325733D01*
X525513Y327476D01*
D02*
G37*
G36*
X344430Y246453D02*
X341570D01*
X339547Y244430D01*
Y241570D01*
X341570Y239547D01*
X344430D01*
X346453Y241570D01*
Y244430D01*
X344430Y246453D01*
D02*
G37*
G36*
X476930Y236953D02*
X475750D01*
Y233750D01*
X478953D01*
Y234930D01*
X476930Y236953D01*
D02*
G37*
G36*
X475250D02*
X474070D01*
X472047Y234930D01*
Y233750D01*
X475250D01*
Y236953D01*
D02*
G37*
G36*
X478953Y233250D02*
X475750D01*
Y230047D01*
X476930D01*
X478953Y232070D01*
Y233250D01*
D02*
G37*
G36*
X475250D02*
X472047D01*
Y232070D01*
X474070Y230047D01*
X475250D01*
Y233250D01*
D02*
G37*
G36*
X446930Y236953D02*
X444070D01*
X442047Y234930D01*
Y232070D01*
X444070Y230047D01*
X446930D01*
X448953Y232070D01*
Y234930D01*
X446930Y236953D01*
D02*
G37*
G36*
X344430Y236453D02*
X341570D01*
X339547Y234430D01*
Y231570D01*
X341570Y229547D01*
X344430D01*
X346453Y231570D01*
Y234430D01*
X344430Y236453D01*
D02*
G37*
G36*
X413074Y250250D02*
X410246D01*
Y247422D01*
X410275Y247429D01*
X410316Y247412D01*
X410387Y247441D01*
X410956D01*
X411096Y247361D01*
X411311Y247211D01*
X411329Y247196D01*
X412601Y245924D01*
Y227218D01*
X410173Y224789D01*
X410172Y224788D01*
X409950Y224633D01*
X409822Y224559D01*
X409216D01*
X409174Y224576D01*
X409133Y224559D01*
X409132D01*
X409104Y224566D01*
Y221750D01*
X411920D01*
X411913Y221778D01*
Y221778D01*
X411931Y221820D01*
X411913Y221862D01*
Y222467D01*
X411987Y222595D01*
X412139Y222812D01*
X412149Y222824D01*
X414980Y225655D01*
X415388Y226640D01*
Y246501D01*
X414980Y247487D01*
X413293Y249174D01*
X413289Y249179D01*
X413135Y249400D01*
X413055Y249540D01*
Y250110D01*
X413084Y250180D01*
X413067Y250221D01*
X413074Y250250D01*
D02*
G37*
G36*
X408604Y224559D02*
X405795D01*
Y221750D01*
X408604D01*
Y224559D01*
D02*
G37*
G36*
X390122D02*
X387587D01*
X385795Y222767D01*
Y220233D01*
X387587Y218441D01*
X390122D01*
X391914Y220233D01*
Y222767D01*
X390122Y224559D01*
D02*
G37*
G36*
X344430Y206453D02*
X341570D01*
X339547Y204430D01*
Y201570D01*
X341570Y199547D01*
X344430D01*
X346453Y201570D01*
Y204430D01*
X344430Y206453D01*
D02*
G37*
G36*
X664497Y207898D02*
X660821D01*
X658222Y205298D01*
Y201623D01*
X660821Y199024D01*
X664497D01*
X667096Y201623D01*
Y205298D01*
X664497Y207898D01*
D02*
G37*
G36*
X411913Y221250D02*
X408854D01*
X405795D01*
Y218441D01*
X407175D01*
X407223Y218415D01*
X407309Y218406D01*
X407319Y218402D01*
X407328Y218396D01*
X407350Y218373D01*
X407386Y218314D01*
X407427Y218213D01*
X407461Y218087D01*
Y205873D01*
X399877Y198289D01*
X399877Y198289D01*
X399654Y198133D01*
X399526Y198059D01*
X398920D01*
X398879Y198076D01*
X398837Y198059D01*
X398837D01*
X398809Y198066D01*
Y195250D01*
X401625D01*
X401618Y195278D01*
Y195278D01*
X401635Y195320D01*
X401618Y195361D01*
Y195967D01*
X401692Y196095D01*
X401843Y196312D01*
X401854Y196324D01*
X409840Y204310D01*
X410248Y205295D01*
Y218087D01*
X410282Y218213D01*
X410323Y218314D01*
X410359Y218373D01*
X410381Y218396D01*
X410390Y218402D01*
X410400Y218406D01*
X410486Y218415D01*
X410534Y218441D01*
X411913D01*
Y221250D01*
D02*
G37*
G36*
X398309Y198059D02*
X395500D01*
Y195250D01*
X398309D01*
Y198059D01*
D02*
G37*
G36*
X344430Y216453D02*
X341570D01*
X339547Y214430D01*
Y211570D01*
X341570Y209547D01*
X344430D01*
X345389Y210506D01*
X345485Y210544D01*
X345725Y210777D01*
X345952Y210974D01*
X346176Y211145D01*
X346394Y211290D01*
X346609Y211410D01*
X346818Y211506D01*
X347023Y211579D01*
X347130Y211607D01*
X369982D01*
X385124Y196464D01*
X385141Y196437D01*
X385225Y196274D01*
X385297Y196100D01*
X385355Y195914D01*
X385402Y195714D01*
X385435Y195500D01*
X385454Y195273D01*
X385459Y195015D01*
X385500Y194921D01*
Y193733D01*
X387292Y191941D01*
X389826D01*
X391618Y193733D01*
Y196267D01*
X389826Y198059D01*
X388638D01*
X388544Y198100D01*
X388286Y198105D01*
X388059Y198124D01*
X387845Y198157D01*
X387645Y198204D01*
X387459Y198262D01*
X387285Y198334D01*
X387122Y198418D01*
X387095Y198435D01*
X371544Y213985D01*
X370559Y214393D01*
X347130D01*
X347023Y214421D01*
X346818Y214494D01*
X346609Y214590D01*
X346394Y214710D01*
X346176Y214855D01*
X345952Y215026D01*
X345725Y215223D01*
X345485Y215456D01*
X345389Y215494D01*
X344430Y216453D01*
D02*
G37*
G36*
X575953Y197953D02*
X569047D01*
Y191047D01*
X575953D01*
Y197953D01*
D02*
G37*
G36*
X344430Y196453D02*
X341570D01*
X339547Y194430D01*
Y191570D01*
X341570Y189547D01*
X344430D01*
X346453Y191570D01*
Y194430D01*
X344430Y196453D01*
D02*
G37*
G36*
X603930Y187953D02*
X601070D01*
X599047Y185930D01*
Y183070D01*
X601070Y181047D01*
X603930D01*
X605953Y183070D01*
Y185930D01*
X603930Y187953D01*
D02*
G37*
G36*
X573930D02*
X571070D01*
X569047Y185930D01*
Y183070D01*
X571070Y181047D01*
X573930D01*
X575953Y183070D01*
Y185930D01*
X573930Y187953D01*
D02*
G37*
G36*
X344430Y186453D02*
X341570D01*
X339547Y184430D01*
Y181570D01*
X341570Y179547D01*
X344430D01*
X346453Y181570D01*
Y184430D01*
X344430Y186453D01*
D02*
G37*
G36*
X572250Y177953D02*
X571070D01*
X569047Y175930D01*
Y174750D01*
X572250D01*
Y177953D01*
D02*
G37*
G36*
X603930D02*
X601070D01*
X599047Y175930D01*
Y173070D01*
X601070Y171047D01*
X603930D01*
X605953Y173070D01*
Y175930D01*
X603930Y177953D01*
D02*
G37*
G36*
X575953Y174250D02*
X572750D01*
Y171047D01*
X573930D01*
X575953Y173070D01*
Y174250D01*
D02*
G37*
G36*
X421323Y166559D02*
X418514D01*
Y163750D01*
X421323D01*
Y166559D01*
D02*
G37*
G36*
X401618Y194750D02*
X398559D01*
X395500D01*
Y191941D01*
X396879D01*
X396927Y191915D01*
X397014Y191906D01*
X397024Y191902D01*
X397032Y191896D01*
X397055Y191873D01*
X397090Y191814D01*
X397132Y191713D01*
X397165Y191587D01*
Y183205D01*
X397574Y182219D01*
X414975Y164818D01*
X414975Y164818D01*
X415131Y164595D01*
X415205Y164467D01*
Y163862D01*
X415187Y163820D01*
X415205Y163778D01*
Y163778D01*
X415198Y163750D01*
X418014D01*
Y166566D01*
X417986Y166559D01*
X417985D01*
X417944Y166576D01*
X417902Y166559D01*
X417297D01*
X417168Y166633D01*
X416952Y166784D01*
X416939Y166795D01*
X399953Y183782D01*
Y191587D01*
X399986Y191713D01*
X400028Y191814D01*
X400063Y191873D01*
X400085Y191896D01*
X400094Y191902D01*
X400104Y191906D01*
X400190Y191915D01*
X400239Y191941D01*
X401618D01*
Y194750D01*
D02*
G37*
G36*
X390003Y166559D02*
X387469D01*
X385677Y164767D01*
Y162233D01*
X387469Y160441D01*
X390003D01*
X391795Y162233D01*
Y164767D01*
X390003Y166559D01*
D02*
G37*
G36*
X547013Y162976D02*
X544547D01*
X542803Y161233D01*
Y158767D01*
X544547Y157024D01*
X547013D01*
X548756Y158767D01*
Y161233D01*
X547013Y162976D01*
D02*
G37*
G36*
X519453D02*
X516988D01*
X515244Y161233D01*
Y158767D01*
X516988Y157024D01*
X519453D01*
X521197Y158767D01*
Y161233D01*
X519453Y162976D01*
D02*
G37*
G36*
X515000Y300237D02*
X512357Y299143D01*
X511263Y296500D01*
X512357Y293857D01*
X515787Y290428D01*
Y239624D01*
X513400Y237237D01*
X511500D01*
X510813Y236953D01*
X510070D01*
X509544Y236427D01*
X508857Y236143D01*
X508573Y235456D01*
X508047Y234930D01*
Y234187D01*
X507763Y233500D01*
Y180383D01*
X508857Y177740D01*
X547595Y139003D01*
X547403Y138541D01*
X543500D01*
X543117Y138383D01*
X542959Y138000D01*
Y127041D01*
X341724D01*
X337541Y131224D01*
Y151959D01*
X341306D01*
X341437Y151459D01*
X339449Y149471D01*
Y146529D01*
X341529Y144449D01*
X344471D01*
X346551Y146529D01*
Y149471D01*
X344563Y151459D01*
X344694Y151959D01*
X354000D01*
X354383Y152117D01*
X354541Y152500D01*
Y164000D01*
X354463Y164189D01*
X354388Y164377D01*
X354384Y164379D01*
X354383Y164383D01*
X354194Y164461D01*
X354007Y164541D01*
X317507Y165041D01*
X317504Y165040D01*
X317500Y165041D01*
X317310Y164963D01*
X317123Y164888D01*
X317121Y164884D01*
X317117Y164883D01*
X317085Y164804D01*
X317039Y164694D01*
X316959Y164507D01*
X316960Y164504D01*
X316959Y164500D01*
Y121500D01*
X317117Y121117D01*
X320117Y118117D01*
X320500Y117959D01*
X320500Y117959D01*
X329959D01*
Y112988D01*
X329459Y112935D01*
X325398Y116996D01*
X319602D01*
X315504Y112898D01*
Y107102D01*
X319602Y103004D01*
X325398D01*
X329459Y107065D01*
X329959Y107012D01*
Y104000D01*
X330117Y103617D01*
X330500Y103459D01*
X550500D01*
X550883Y103617D01*
X551041Y104000D01*
Y134849D01*
X551541Y135056D01*
X553719Y132879D01*
Y132871D01*
X554244Y132345D01*
X554529Y131658D01*
X555216Y131374D01*
X555741Y130848D01*
X556485D01*
X557171Y130564D01*
X557858Y130848D01*
X558602D01*
X559127Y131374D01*
X559814Y131658D01*
X560099Y132345D01*
X560624Y132871D01*
Y133614D01*
X560909Y134301D01*
Y134712D01*
X560624Y135398D01*
Y135731D01*
X560389Y135967D01*
X559814Y137354D01*
X515237Y181931D01*
Y229883D01*
X517590Y230857D01*
X522166Y235434D01*
X523261Y238076D01*
Y291976D01*
X522166Y294619D01*
X517643Y299143D01*
X515000Y300237D01*
D02*
G37*
G36*
X346551Y141551D02*
X343250D01*
Y138250D01*
X346551D01*
Y141551D01*
D02*
G37*
G36*
X342750D02*
X339449D01*
Y138250D01*
X342750D01*
Y141551D01*
D02*
G37*
G36*
X346551Y137750D02*
X343250D01*
Y134449D01*
X346551D01*
Y137750D01*
D02*
G37*
G36*
X342750D02*
X339449D01*
Y134449D01*
X342750D01*
Y137750D01*
D02*
G37*
G36*
X421323Y163250D02*
X418264D01*
X415205D01*
Y160441D01*
X416584D01*
X416632Y160415D01*
X416718Y160406D01*
X416728Y160402D01*
X416737Y160396D01*
X416759Y160372D01*
X416795Y160314D01*
X416836Y160213D01*
X416870Y160087D01*
Y144998D01*
X408964Y137092D01*
X408963Y137092D01*
X408741Y136936D01*
X408613Y136862D01*
X408093D01*
Y136249D01*
X408231Y136207D01*
X408397Y136208D01*
X408586Y136254D01*
X408798Y136344D01*
X409032Y136479D01*
X409288Y136658D01*
X409567Y136882D01*
X410193Y137464D01*
X411306Y136350D01*
X410993Y136026D01*
X410501Y135446D01*
X410322Y135189D01*
X410187Y134955D01*
X410097Y134744D01*
X410051Y134555D01*
X410050Y134388D01*
X410091Y134250D01*
X410705D01*
Y134770D01*
X410779Y134898D01*
X410930Y135115D01*
X410941Y135127D01*
X419249Y143436D01*
X419657Y144421D01*
Y160087D01*
X419691Y160213D01*
X419732Y160314D01*
X419768Y160372D01*
X419790Y160396D01*
X419799Y160402D01*
X419809Y160406D01*
X419895Y160415D01*
X419943Y160441D01*
X421323D01*
Y163250D01*
D02*
G37*
G36*
X408093Y136211D02*
Y134250D01*
X410054D01*
X408093Y136211D01*
D02*
G37*
G36*
X407593Y136862D02*
X404980D01*
Y134250D01*
X407593D01*
Y136862D01*
D02*
G37*
G36*
X410705Y133750D02*
X408093D01*
Y131138D01*
X410705D01*
Y133750D01*
D02*
G37*
G36*
X407593D02*
X404980D01*
Y131138D01*
X407593D01*
Y133750D01*
D02*
G37*
G36*
X389343Y136862D02*
X386972D01*
X385295Y135186D01*
Y132814D01*
X386972Y131138D01*
X389343D01*
X391020Y132814D01*
Y135186D01*
X389343Y136862D01*
D02*
G37*
G36*
X538601Y137754D02*
X535741D01*
X533719Y135731D01*
Y132871D01*
X535741Y130848D01*
X538601D01*
X540624Y132871D01*
Y135731D01*
X538601Y137754D01*
D02*
G37*
G36*
X603930Y167953D02*
X601070D01*
X599047Y165930D01*
Y163070D01*
X601070Y161047D01*
X602426D01*
X602521Y161006D01*
X602855Y161001D01*
X603155Y160980D01*
X603434Y160943D01*
X603691Y160890D01*
X603927Y160824D01*
X604143Y160744D01*
X604340Y160651D01*
X604435Y160594D01*
X619106Y145923D01*
Y138292D01*
X619072Y138164D01*
X619031Y138061D01*
X618995Y138002D01*
X618972Y137977D01*
X618963Y137971D01*
X618954Y137968D01*
X618868Y137959D01*
X618842Y137945D01*
X616929D01*
Y130803D01*
X624071D01*
Y137945D01*
X622158D01*
X622132Y137959D01*
X622046Y137968D01*
X622037Y137971D01*
X622028Y137977D01*
X622006Y138002D01*
X621969Y138061D01*
X621927Y138164D01*
X621894Y138292D01*
Y146500D01*
X621485Y147485D01*
X606406Y162565D01*
X606349Y162660D01*
X606256Y162857D01*
X606176Y163073D01*
X606110Y163309D01*
X606057Y163566D01*
X606020Y163845D01*
X605999Y164145D01*
X605994Y164479D01*
X605953Y164574D01*
Y165930D01*
X603930Y167953D01*
D02*
G37*
G36*
X614071Y134124D02*
X610750D01*
Y130803D01*
X611979D01*
X614071Y132895D01*
Y134124D01*
D02*
G37*
G36*
X516824Y137169D02*
X514176D01*
X512303Y135297D01*
Y132648D01*
X514176Y130775D01*
X516824D01*
X518697Y132648D01*
Y135297D01*
X516824Y137169D01*
D02*
G37*
G36*
X506824D02*
X504176D01*
X502303Y135297D01*
Y132648D01*
X504176Y130775D01*
X506824D01*
X508697Y132648D01*
Y135297D01*
X506824Y137169D01*
D02*
G37*
G36*
X491012Y162976D02*
X488547D01*
X486803Y161233D01*
Y158767D01*
X487618Y157952D01*
X487655Y157857D01*
X487823Y157682D01*
X487960Y157519D01*
X488078Y157355D01*
X488179Y157191D01*
X488263Y157026D01*
X488331Y156860D01*
X488383Y156692D01*
X488386Y156679D01*
Y139693D01*
X488794Y138707D01*
X492073Y135429D01*
X492074Y135428D01*
X492229Y135205D01*
X492303Y135077D01*
Y134472D01*
X492286Y134430D01*
X492303Y134389D01*
Y134388D01*
X492293Y134344D01*
X492303Y134328D01*
Y130775D01*
X498697D01*
Y137169D01*
X495145D01*
X495128Y137180D01*
X495084Y137169D01*
X495084D01*
X495042Y137187D01*
X495001Y137169D01*
X494395D01*
X494267Y137243D01*
X494051Y137394D01*
X494038Y137405D01*
X491173Y140270D01*
Y156679D01*
X491176Y156692D01*
X491228Y156860D01*
X491296Y157026D01*
X491380Y157191D01*
X491481Y157355D01*
X491600Y157519D01*
X491737Y157683D01*
X491904Y157857D01*
X491941Y157952D01*
X492756Y158767D01*
Y161233D01*
X491012Y162976D01*
D02*
G37*
G36*
X477197Y137169D02*
X470803D01*
Y130775D01*
X477197D01*
Y137169D01*
D02*
G37*
G36*
X465324D02*
X462676D01*
X460803Y135297D01*
Y132648D01*
X462676Y130775D01*
X465324D01*
X467197Y132648D01*
Y135297D01*
X465324Y137169D01*
D02*
G37*
G36*
X463453Y162976D02*
X460988D01*
X459244Y161233D01*
Y158767D01*
X460059Y157952D01*
X460096Y157857D01*
X460264Y157682D01*
X460400Y157519D01*
X460519Y157355D01*
X460620Y157191D01*
X460704Y157026D01*
X460772Y156860D01*
X460824Y156692D01*
X460827Y156679D01*
Y142770D01*
X455631Y137574D01*
X455579Y137542D01*
X455404Y137455D01*
X455216Y137380D01*
X455011Y137318D01*
X454791Y137270D01*
X454555Y137235D01*
X454302Y137215D01*
X454017Y137210D01*
X453923Y137169D01*
X452676D01*
X450803Y135297D01*
Y132648D01*
X452676Y130775D01*
X455324D01*
X457197Y132648D01*
Y133896D01*
X457238Y133990D01*
X457243Y134274D01*
X457263Y134527D01*
X457298Y134764D01*
X457346Y134984D01*
X457408Y135188D01*
X457482Y135377D01*
X457569Y135551D01*
X457601Y135603D01*
X463206Y141208D01*
X463614Y142193D01*
Y156679D01*
X463617Y156692D01*
X463669Y156860D01*
X463737Y157026D01*
X463821Y157191D01*
X463922Y157355D01*
X464040Y157519D01*
X464177Y157683D01*
X464345Y157857D01*
X464382Y157952D01*
X465197Y158767D01*
Y161233D01*
X463453Y162976D01*
D02*
G37*
G36*
X609059Y236559D02*
X602941D01*
Y231024D01*
X602912Y230953D01*
X602921Y230930D01*
X602914Y230907D01*
X602941Y230854D01*
Y230441D01*
X602994D01*
X603009Y230205D01*
Y199239D01*
X601722Y197953D01*
X601070D01*
X599047Y195930D01*
Y193070D01*
X601070Y191047D01*
X601722D01*
X626408Y166361D01*
Y152500D01*
X627285Y150385D01*
X648585Y129085D01*
X650700Y128208D01*
X662300D01*
X664415Y129085D01*
X667215Y131885D01*
X668091Y134000D01*
Y146000D01*
X667215Y148115D01*
X664715Y150615D01*
X662600Y151491D01*
X661159D01*
X659714Y152937D01*
X656038D01*
X653955Y150854D01*
X653493Y151046D01*
Y154102D01*
X662313D01*
Y160614D01*
X662314Y160615D01*
X662313Y160620D01*
Y160706D01*
X662330Y160748D01*
X662313Y160789D01*
Y160922D01*
X662377Y161029D01*
X662474Y161167D01*
X663645Y162338D01*
X664053Y163323D01*
Y188631D01*
X664087Y188756D01*
X664128Y188857D01*
X664164Y188916D01*
X664186Y188939D01*
X664195Y188945D01*
X664205Y188949D01*
X664291Y188958D01*
X664339Y188984D01*
X667096D01*
Y197858D01*
X658222D01*
Y188984D01*
X660980D01*
X661028Y188958D01*
X661114Y188949D01*
X661124Y188945D01*
X661133Y188939D01*
X661155Y188916D01*
X661191Y188857D01*
X661232Y188756D01*
X661266Y188631D01*
Y163900D01*
X660504Y163138D01*
X660366Y163040D01*
X660259Y162976D01*
X660126D01*
X660084Y162994D01*
X660043Y162976D01*
X659956D01*
X659951Y162977D01*
X659951Y162976D01*
X653493D01*
Y202363D01*
X659588Y208458D01*
X659828Y208585D01*
X660111Y208700D01*
X660432Y208800D01*
X660792Y208882D01*
X661184Y208945D01*
X662110Y209017D01*
X662625Y209022D01*
X662722Y209063D01*
X664497D01*
X667096Y211662D01*
Y215338D01*
X664497Y217937D01*
X660821D01*
X658222Y215338D01*
Y213568D01*
X658182Y213477D01*
X658150Y212463D01*
X658106Y212032D01*
X658041Y211633D01*
X657959Y211273D01*
X657859Y210951D01*
X657744Y210669D01*
X657618Y210429D01*
X651115Y203926D01*
X650706Y202941D01*
Y144237D01*
X651115Y143251D01*
X652834Y141532D01*
X652961Y141292D01*
X653076Y141009D01*
X653175Y140688D01*
X653258Y140328D01*
X653321Y139936D01*
X653393Y139011D01*
X653398Y138495D01*
X653439Y138398D01*
Y136623D01*
X655408Y134653D01*
X655217Y134192D01*
X651939D01*
X632392Y153739D01*
Y167600D01*
X631515Y169715D01*
X606731Y194500D01*
X608115Y195885D01*
X608991Y198000D01*
Y230441D01*
X609059D01*
Y230854D01*
X609086Y230907D01*
X609079Y230930D01*
X609088Y230953D01*
X609059Y231024D01*
Y236559D01*
D02*
G37*
G36*
X692898Y116996D02*
X687102D01*
X683004Y112898D01*
Y107102D01*
X687102Y103004D01*
X692898D01*
X696996Y107102D01*
Y112898D01*
X692898Y116996D01*
D02*
G37*
%LPD*%
G36*
X500089Y457975D02*
X499927Y457797D01*
X499783Y457605D01*
X499655Y457397D01*
X499545Y457174D01*
X499453Y456937D01*
X499378Y456685D01*
X499321Y456418D01*
X499280Y456136D01*
X499257Y455839D01*
X499252Y455527D01*
X496527Y458252D01*
X496839Y458257D01*
X497136Y458280D01*
X497418Y458321D01*
X497685Y458378D01*
X497937Y458453D01*
X498174Y458545D01*
X498397Y458655D01*
X498604Y458782D01*
X498797Y458927D01*
X498975Y459089D01*
X500089Y457975D01*
D02*
G37*
G36*
X554642Y457678D02*
X554774Y457565D01*
X554905Y457466D01*
X555036Y457380D01*
X555166Y457307D01*
X555296Y457248D01*
X555425Y457202D01*
X555553Y457170D01*
X555681Y457151D01*
X555808Y457146D01*
X554054Y455392D01*
X554049Y455519D01*
X554030Y455647D01*
X553998Y455775D01*
X553952Y455904D01*
X553893Y456034D01*
X553820Y456164D01*
X553734Y456295D01*
X553635Y456426D01*
X553522Y456558D01*
X553395Y456691D01*
X554509Y457805D01*
X554642Y457678D01*
D02*
G37*
G36*
X623210Y453310D02*
X623016Y453085D01*
X622846Y452857D01*
X622697Y452627D01*
X622572Y452396D01*
X622470Y452163D01*
X622390Y451928D01*
X622333Y451691D01*
X622299Y451452D01*
X622287Y451212D01*
X620713D01*
X620701Y451452D01*
X620667Y451691D01*
X620610Y451928D01*
X620530Y452163D01*
X620428Y452396D01*
X620303Y452627D01*
X620154Y452857D01*
X619984Y453085D01*
X619790Y453310D01*
X619574Y453535D01*
X623426D01*
X623210Y453310D01*
D02*
G37*
G36*
X588968Y452126D02*
X588563Y452121D01*
X587822Y452052D01*
X587486Y451990D01*
X587173Y451908D01*
X586882Y451807D01*
X586615Y451686D01*
X586371Y451547D01*
X586149Y451389D01*
X585951Y451211D01*
X584837Y452325D01*
X585015Y452523D01*
X585173Y452745D01*
X585313Y452989D01*
X585433Y453257D01*
X585534Y453547D01*
X585616Y453860D01*
X585678Y454196D01*
X585722Y454555D01*
X585747Y454937D01*
X585752Y455341D01*
X588968Y452126D01*
D02*
G37*
G36*
X466576Y454696D02*
X466600Y454345D01*
X466643Y454013D01*
X466704Y453702D01*
X466783Y453410D01*
X466881Y453139D01*
X466998Y452888D01*
X467133Y452656D01*
X467286Y452445D01*
X467458Y452253D01*
X466345Y451140D01*
X466153Y451312D01*
X465942Y451466D01*
X465711Y451601D01*
X465459Y451717D01*
X465188Y451815D01*
X464896Y451895D01*
X464585Y451956D01*
X464254Y451998D01*
X463902Y452022D01*
X463531Y452028D01*
X466571Y455068D01*
X466576Y454696D01*
D02*
G37*
G36*
X464913Y433134D02*
X464780Y433087D01*
X464661Y433008D01*
X464559Y432898D01*
X464472Y432756D01*
X464402Y432583D01*
X464347Y432378D01*
X464307Y432142D01*
X464284Y431874D01*
X464276Y431575D01*
X462701D01*
X462693Y431874D01*
X462669Y432142D01*
X462630Y432378D01*
X462575Y432583D01*
X462504Y432756D01*
X462417Y432898D01*
X462315Y433008D01*
X462197Y433087D01*
X462063Y433134D01*
X461913Y433150D01*
X465063D01*
X464913Y433134D01*
D02*
G37*
G36*
X464284Y417425D02*
X464310Y417211D01*
X464354Y417003D01*
X464414Y416799D01*
X464492Y416601D01*
X464587Y416408D01*
X464700Y416220D01*
X464830Y416037D01*
X464977Y415859D01*
X465142Y415687D01*
X461835D01*
X461999Y415859D01*
X462147Y416037D01*
X462276Y416220D01*
X462389Y416408D01*
X462484Y416601D01*
X462562Y416799D01*
X462623Y417003D01*
X462666Y417211D01*
X462692Y417425D01*
X462701Y417644D01*
X464276D01*
X464284Y417425D01*
D02*
G37*
G36*
X563134Y407835D02*
X562985Y407674D01*
X562852Y407505D01*
X562735Y407326D01*
X562634Y407139D01*
X562549Y406944D01*
X562480Y406740D01*
X562426Y406528D01*
X562389Y406307D01*
X562368Y406077D01*
X562362Y405839D01*
X560024Y408177D01*
X560262Y408183D01*
X560492Y408204D01*
X560713Y408241D01*
X560925Y408295D01*
X561129Y408364D01*
X561325Y408449D01*
X561511Y408550D01*
X561690Y408667D01*
X561859Y408800D01*
X562020Y408949D01*
X563134Y407835D01*
D02*
G37*
G36*
X561489Y403956D02*
X561342Y403778D01*
X561212Y403595D01*
X561099Y403407D01*
X561004Y403214D01*
X560926Y403016D01*
X560865Y402812D01*
X560822Y402604D01*
X560796Y402390D01*
X560787Y402171D01*
X559213D01*
X559204Y402390D01*
X559178Y402604D01*
X559135Y402812D01*
X559074Y403016D01*
X558996Y403214D01*
X558901Y403407D01*
X558788Y403595D01*
X558658Y403778D01*
X558511Y403956D01*
X558347Y404128D01*
X561654D01*
X561489Y403956D01*
D02*
G37*
G36*
X466012Y381395D02*
X466189Y381258D01*
X466375Y381138D01*
X466573Y381034D01*
X466781Y380947D01*
X466999Y380876D01*
X467227Y380821D01*
X467466Y380783D01*
X467716Y380761D01*
X467975Y380756D01*
X465524Y378304D01*
X465518Y378564D01*
X465496Y378813D01*
X465458Y379052D01*
X465404Y379281D01*
X465333Y379499D01*
X465245Y379707D01*
X465142Y379904D01*
X465022Y380091D01*
X464885Y380268D01*
X464732Y380434D01*
X465846Y381547D01*
X466012Y381395D01*
D02*
G37*
G36*
X530822Y367708D02*
X530653Y367522D01*
X530503Y367317D01*
X530371Y367095D01*
X530257Y366854D01*
X530161Y366595D01*
X530083Y366318D01*
X530023Y366023D01*
X529982Y365710D01*
X529958Y365379D01*
X529953Y365030D01*
X527030Y367953D01*
X527379Y367958D01*
X527710Y367982D01*
X528023Y368023D01*
X528318Y368083D01*
X528595Y368161D01*
X528854Y368257D01*
X529095Y368371D01*
X529317Y368503D01*
X529522Y368653D01*
X529708Y368822D01*
X530822Y367708D01*
D02*
G37*
G36*
X570077Y328108D02*
X570105Y327887D01*
X570152Y327670D01*
X570218Y327457D01*
X570303Y327249D01*
X570408Y327044D01*
X570531Y326844D01*
X570673Y326648D01*
X570833Y326456D01*
X571013Y326269D01*
X567546D01*
X567726Y326456D01*
X567887Y326648D01*
X568029Y326844D01*
X568152Y327044D01*
X568256Y327249D01*
X568341Y327457D01*
X568407Y327670D01*
X568454Y327887D01*
X568483Y328108D01*
X568492Y328334D01*
X570067D01*
X570077Y328108D01*
D02*
G37*
G36*
X645416Y324985D02*
X645586Y324852D01*
X645764Y324735D01*
X645951Y324634D01*
X646146Y324549D01*
X646350Y324480D01*
X646563Y324426D01*
X646784Y324389D01*
X647014Y324368D01*
X647252Y324362D01*
X644913Y322024D01*
X644908Y322262D01*
X644886Y322492D01*
X644849Y322713D01*
X644796Y322925D01*
X644727Y323129D01*
X644641Y323324D01*
X644541Y323511D01*
X644423Y323690D01*
X644291Y323859D01*
X644142Y324020D01*
X645255Y325134D01*
X645416Y324985D01*
D02*
G37*
G36*
X610028Y320141D02*
X609881Y319963D01*
X609751Y319780D01*
X609639Y319592D01*
X609543Y319399D01*
X609465Y319201D01*
X609405Y318997D01*
X609361Y318789D01*
X609336Y318575D01*
X609327Y318356D01*
X607752D01*
X607743Y318575D01*
X607717Y318789D01*
X607674Y318997D01*
X607613Y319201D01*
X607536Y319399D01*
X607440Y319592D01*
X607328Y319780D01*
X607198Y319963D01*
X607050Y320141D01*
X606886Y320313D01*
X610193D01*
X610028Y320141D01*
D02*
G37*
G36*
X590280Y319634D02*
X590146Y319587D01*
X590028Y319508D01*
X589925Y319398D01*
X589839Y319256D01*
X589768Y319083D01*
X589713Y318878D01*
X589673Y318642D01*
X589650Y318374D01*
X589642Y318075D01*
X588067D01*
X588059Y318374D01*
X588035Y318642D01*
X587996Y318878D01*
X587941Y319083D01*
X587870Y319256D01*
X587783Y319398D01*
X587681Y319508D01*
X587563Y319587D01*
X587429Y319634D01*
X587280Y319650D01*
X590429D01*
X590280Y319634D01*
D02*
G37*
G36*
X610292Y295615D02*
X610468Y295479D01*
X610655Y295358D01*
X610852Y295255D01*
X611060Y295167D01*
X611278Y295096D01*
X611507Y295042D01*
X611746Y295004D01*
X611995Y294982D01*
X612255Y294976D01*
X609803Y292525D01*
X609798Y292785D01*
X609776Y293034D01*
X609738Y293273D01*
X609683Y293501D01*
X609612Y293719D01*
X609525Y293927D01*
X609421Y294125D01*
X609301Y294311D01*
X609165Y294488D01*
X609012Y294654D01*
X610126Y295768D01*
X610292Y295615D01*
D02*
G37*
G36*
X637000Y292615D02*
X637177Y292478D01*
X637364Y292358D01*
X637561Y292255D01*
X637769Y292167D01*
X637987Y292096D01*
X638215Y292042D01*
X638454Y292004D01*
X638704Y291982D01*
X638963Y291976D01*
X636512Y289525D01*
X636506Y289785D01*
X636484Y290034D01*
X636446Y290273D01*
X636392Y290501D01*
X636321Y290719D01*
X636233Y290927D01*
X636130Y291125D01*
X636010Y291311D01*
X635873Y291488D01*
X635721Y291654D01*
X636834Y292768D01*
X637000Y292615D01*
D02*
G37*
G36*
X467792Y251967D02*
X467805Y251794D01*
X467828Y251630D01*
X467860Y251477D01*
X467901Y251333D01*
X467950Y251200D01*
X468009Y251076D01*
X468077Y250963D01*
X468154Y250859D01*
X468240Y250765D01*
X465760D01*
X465846Y250859D01*
X465923Y250963D01*
X465991Y251076D01*
X466050Y251200D01*
X466099Y251333D01*
X466140Y251477D01*
X466172Y251630D01*
X466194Y251794D01*
X466208Y251967D01*
X466213Y252150D01*
X467787D01*
X467792Y251967D01*
D02*
G37*
G36*
X659203Y458927D02*
X659396Y458782D01*
X659603Y458655D01*
X659826Y458545D01*
X660063Y458453D01*
X660315Y458378D01*
X660582Y458321D01*
X660864Y458280D01*
X661161Y458257D01*
X661473Y458252D01*
X658748Y455527D01*
X658743Y455839D01*
X658720Y456136D01*
X658679Y456418D01*
X658622Y456685D01*
X658547Y456937D01*
X658455Y457174D01*
X658345Y457397D01*
X658217Y457605D01*
X658073Y457797D01*
X657911Y457975D01*
X659025Y459089D01*
X659203Y458927D01*
D02*
G37*
G36*
X644257Y455161D02*
X644280Y454864D01*
X644320Y454582D01*
X644378Y454315D01*
X644453Y454063D01*
X644546Y453826D01*
X644655Y453603D01*
X644782Y453396D01*
X644927Y453203D01*
X645089Y453025D01*
X643975Y451911D01*
X643797Y452073D01*
X643605Y452217D01*
X643397Y452345D01*
X643174Y452455D01*
X642937Y452547D01*
X642685Y452622D01*
X642418Y452679D01*
X642136Y452720D01*
X641839Y452743D01*
X641528Y452748D01*
X644252Y455473D01*
X644257Y455161D01*
D02*
G37*
G36*
X640734Y431209D02*
X640915Y431070D01*
X641109Y430948D01*
X641314Y430842D01*
X641530Y430753D01*
X641759Y430681D01*
X641999Y430625D01*
X642251Y430587D01*
X642514Y430564D01*
X642789Y430559D01*
X640256Y428026D01*
X640251Y428301D01*
X640228Y428564D01*
X640190Y428816D01*
X640134Y429056D01*
X640062Y429285D01*
X639973Y429501D01*
X639867Y429706D01*
X639745Y429900D01*
X639606Y430081D01*
X639451Y430251D01*
X640564Y431364D01*
X640734Y431209D01*
D02*
G37*
G36*
X657856Y383740D02*
X657887Y383514D01*
X657937Y383291D01*
X658007Y383071D01*
X658097Y382855D01*
X658208Y382643D01*
X658338Y382434D01*
X658489Y382228D01*
X658660Y382026D01*
X658850Y381827D01*
X655268D01*
X655458Y382026D01*
X655629Y382228D01*
X655780Y382434D01*
X655910Y382643D01*
X656021Y382855D01*
X656111Y383071D01*
X656181Y383291D01*
X656231Y383514D01*
X656262Y383740D01*
X656272Y383970D01*
X657846D01*
X657856Y383740D01*
D02*
G37*
G36*
X369973Y436303D02*
X369672Y436298D01*
X369385Y436275D01*
X369111Y436235D01*
X368852Y436178D01*
X368607Y436104D01*
X368375Y436013D01*
X368158Y435904D01*
X367954Y435778D01*
X367764Y435635D01*
X367589Y435475D01*
X366475Y436589D01*
X366635Y436764D01*
X366778Y436954D01*
X366904Y437158D01*
X367013Y437375D01*
X367104Y437607D01*
X367178Y437852D01*
X367235Y438111D01*
X367275Y438385D01*
X367298Y438672D01*
X367303Y438973D01*
X369973Y436303D01*
D02*
G37*
G36*
X367764Y385365D02*
X367954Y385222D01*
X368158Y385096D01*
X368375Y384987D01*
X368607Y384896D01*
X368852Y384822D01*
X369111Y384765D01*
X369385Y384725D01*
X369672Y384702D01*
X369973Y384697D01*
X367303Y382027D01*
X367298Y382328D01*
X367275Y382615D01*
X367235Y382889D01*
X367178Y383148D01*
X367104Y383393D01*
X367013Y383625D01*
X366904Y383842D01*
X366778Y384046D01*
X366635Y384236D01*
X366475Y384411D01*
X367589Y385525D01*
X367764Y385365D01*
D02*
G37*
G36*
X369973Y369303D02*
X369672Y369298D01*
X369385Y369275D01*
X369111Y369235D01*
X368852Y369178D01*
X368607Y369104D01*
X368375Y369013D01*
X368158Y368904D01*
X367954Y368778D01*
X367764Y368635D01*
X367589Y368475D01*
X366475Y369589D01*
X366635Y369764D01*
X366778Y369954D01*
X366904Y370158D01*
X367013Y370375D01*
X367104Y370607D01*
X367178Y370852D01*
X367235Y371111D01*
X367275Y371385D01*
X367298Y371672D01*
X367303Y371973D01*
X369973Y369303D01*
D02*
G37*
G36*
X373798Y328685D02*
X373485Y328361D01*
X372993Y327780D01*
X372814Y327524D01*
X372679Y327290D01*
X372589Y327079D01*
X372543Y326889D01*
X372542Y326723D01*
X372585Y326579D01*
X372673Y326458D01*
X370458Y328673D01*
X370579Y328585D01*
X370723Y328542D01*
X370889Y328543D01*
X371078Y328589D01*
X371290Y328679D01*
X371524Y328814D01*
X371780Y328993D01*
X372059Y329217D01*
X372685Y329798D01*
X373798Y328685D01*
D02*
G37*
G36*
X388634Y276638D02*
X388396Y276632D01*
X388166Y276611D01*
X387945Y276574D01*
X387732Y276520D01*
X387528Y276451D01*
X387333Y276366D01*
X387146Y276265D01*
X386968Y276148D01*
X386798Y276015D01*
X386637Y275866D01*
X385524Y276980D01*
X385672Y277141D01*
X385805Y277310D01*
X385922Y277489D01*
X386023Y277676D01*
X386108Y277871D01*
X386178Y278075D01*
X386231Y278287D01*
X386268Y278508D01*
X386290Y278738D01*
X386295Y278976D01*
X388634Y276638D01*
D02*
G37*
G36*
X362846Y233733D02*
X362720Y233600D01*
X362607Y233468D01*
X362507Y233336D01*
X362421Y233205D01*
X362349Y233075D01*
X362289Y232945D01*
X362244Y232816D01*
X362211Y232688D01*
X362193Y232560D01*
X362187Y232433D01*
X360433Y234187D01*
X360560Y234192D01*
X360688Y234211D01*
X360816Y234244D01*
X360945Y234289D01*
X361075Y234349D01*
X361205Y234421D01*
X361336Y234507D01*
X361468Y234607D01*
X361600Y234720D01*
X361733Y234846D01*
X362846Y233733D01*
D02*
G37*
G36*
X594425Y425437D02*
X594291Y425390D01*
X594173Y425311D01*
X594071Y425201D01*
X593984Y425059D01*
X593913Y424886D01*
X593858Y424681D01*
X593819Y424445D01*
X593795Y424177D01*
X593787Y423878D01*
X592213D01*
X592205Y424177D01*
X592181Y424445D01*
X592142Y424681D01*
X592087Y424886D01*
X592016Y425059D01*
X591929Y425201D01*
X591827Y425311D01*
X591709Y425390D01*
X591575Y425437D01*
X591425Y425453D01*
X594575D01*
X594425Y425437D01*
D02*
G37*
G36*
X592712Y405047D02*
X592399Y404723D01*
X591906Y404143D01*
X591727Y403886D01*
X591592Y403652D01*
X591502Y403441D01*
X591456Y403252D01*
X591455Y403085D01*
X591498Y402941D01*
X591586Y402820D01*
X589371Y405035D01*
X589493Y404947D01*
X589637Y404904D01*
X589803Y404905D01*
X589992Y404951D01*
X590203Y405041D01*
X590437Y405176D01*
X590694Y405355D01*
X590973Y405579D01*
X591598Y406161D01*
X592712Y405047D01*
D02*
G37*
G36*
X536047Y415953D02*
X535655Y415921D01*
X535238Y415825D01*
X534794Y415665D01*
X534324Y415441D01*
X533827Y415153D01*
X533305Y414800D01*
X532756Y414384D01*
X531580Y413360D01*
X530953Y412751D01*
X527751Y415953D01*
X528360Y416580D01*
X529384Y417756D01*
X529800Y418305D01*
X530153Y418827D01*
X530441Y419323D01*
X530665Y419794D01*
X530825Y420238D01*
X530921Y420655D01*
X530953Y421047D01*
X536047Y415953D01*
D02*
G37*
G36*
X526473Y452748D02*
X526161Y452743D01*
X525864Y452720D01*
X525582Y452679D01*
X525315Y452622D01*
X525063Y452547D01*
X524826Y452455D01*
X524603Y452345D01*
X524396Y452217D01*
X524203Y452073D01*
X524025Y451911D01*
X522911Y453025D01*
X523073Y453203D01*
X523217Y453396D01*
X523345Y453603D01*
X523455Y453826D01*
X523547Y454063D01*
X523622Y454315D01*
X523679Y454582D01*
X523720Y454864D01*
X523743Y455161D01*
X523748Y455473D01*
X526473Y452748D01*
D02*
G37*
G36*
X495001Y433641D02*
X494853Y433463D01*
X494724Y433280D01*
X494611Y433092D01*
X494516Y432899D01*
X494438Y432701D01*
X494377Y432497D01*
X494334Y432289D01*
X494308Y432075D01*
X494299Y431856D01*
X492724D01*
X492716Y432075D01*
X492690Y432289D01*
X492647Y432497D01*
X492586Y432701D01*
X492508Y432899D01*
X492413Y433092D01*
X492300Y433280D01*
X492170Y433463D01*
X492023Y433641D01*
X491858Y433813D01*
X495165D01*
X495001Y433641D01*
D02*
G37*
G36*
X494307Y417624D02*
X494331Y417354D01*
X494370Y417116D01*
X494425Y416910D01*
X494496Y416735D01*
X494583Y416592D01*
X494685Y416481D01*
X494803Y416402D01*
X494937Y416354D01*
X495087Y416338D01*
X491937D01*
X492087Y416354D01*
X492220Y416402D01*
X492339Y416481D01*
X492441Y416592D01*
X492527Y416735D01*
X492598Y416910D01*
X492654Y417116D01*
X492693Y417354D01*
X492717Y417624D01*
X492724Y417925D01*
X494299D01*
X494307Y417624D01*
D02*
G37*
G36*
X494937Y411634D02*
X494803Y411587D01*
X494685Y411508D01*
X494583Y411398D01*
X494496Y411256D01*
X494425Y411083D01*
X494370Y410878D01*
X494331Y410642D01*
X494307Y410374D01*
X494299Y410075D01*
X492724D01*
X492717Y410374D01*
X492693Y410642D01*
X492654Y410878D01*
X492598Y411083D01*
X492527Y411256D01*
X492441Y411398D01*
X492339Y411508D01*
X492220Y411587D01*
X492087Y411634D01*
X491937Y411650D01*
X495087D01*
X494937Y411634D01*
D02*
G37*
G36*
X496286Y382059D02*
X496164Y382148D01*
X496019Y382193D01*
X495852D01*
X495663Y382148D01*
X495451Y382059D01*
X495217Y381926D01*
X494961Y381748D01*
X494683Y381525D01*
X494059Y380946D01*
X492946Y382059D01*
X493258Y382382D01*
X493748Y382961D01*
X493926Y383217D01*
X494059Y383451D01*
X494148Y383663D01*
X494193Y383852D01*
Y384019D01*
X494148Y384164D01*
X494059Y384286D01*
X496286Y382059D01*
D02*
G37*
G36*
X500822Y367708D02*
X500653Y367522D01*
X500503Y367317D01*
X500371Y367095D01*
X500257Y366854D01*
X500161Y366595D01*
X500083Y366318D01*
X500023Y366023D01*
X499982Y365710D01*
X499958Y365379D01*
X499953Y365030D01*
X497029Y367953D01*
X497379Y367958D01*
X497710Y367982D01*
X498023Y368023D01*
X498318Y368083D01*
X498595Y368161D01*
X498854Y368257D01*
X499095Y368371D01*
X499317Y368503D01*
X499522Y368653D01*
X499708Y368822D01*
X500822Y367708D01*
D02*
G37*
G36*
X539733Y327615D02*
X539909Y327479D01*
X540096Y327358D01*
X540293Y327255D01*
X540501Y327168D01*
X540719Y327097D01*
X540948Y327042D01*
X541187Y327004D01*
X541436Y326982D01*
X541696Y326976D01*
X539244Y324525D01*
X539239Y324784D01*
X539217Y325034D01*
X539179Y325273D01*
X539124Y325501D01*
X539053Y325719D01*
X538966Y325927D01*
X538862Y326125D01*
X538742Y326311D01*
X538605Y326488D01*
X538453Y326654D01*
X539566Y327768D01*
X539733Y327615D01*
D02*
G37*
G36*
X607846Y138160D02*
X608058Y138007D01*
X608289Y137872D01*
X608541Y137755D01*
X608812Y137657D01*
X609103Y137578D01*
X609415Y137517D01*
X609746Y137474D01*
X610098Y137450D01*
X610469Y137445D01*
X607429Y134405D01*
X607424Y134776D01*
X607400Y135128D01*
X607357Y135459D01*
X607296Y135770D01*
X607217Y136062D01*
X607119Y136333D01*
X607002Y136585D01*
X606867Y136816D01*
X606714Y137028D01*
X606541Y137219D01*
X607655Y138332D01*
X607846Y138160D01*
D02*
G37*
G36*
X590476Y399937D02*
X590343Y399890D01*
X590224Y399811D01*
X590122Y399701D01*
X590035Y399559D01*
X589965Y399386D01*
X589910Y399181D01*
X589870Y398945D01*
X589847Y398677D01*
X589839Y398378D01*
X588264D01*
X588256Y398677D01*
X588232Y398945D01*
X588193Y399181D01*
X588138Y399386D01*
X588067Y399559D01*
X587980Y399701D01*
X587878Y399811D01*
X587760Y399890D01*
X587626Y399937D01*
X587476Y399953D01*
X590626D01*
X590476Y399937D01*
D02*
G37*
G36*
X589551Y383820D02*
X589575Y383551D01*
X589614Y383313D01*
X589669Y383106D01*
X589740Y382932D01*
X589827Y382789D01*
X589929Y382678D01*
X590047Y382598D01*
X590181Y382551D01*
X590331Y382535D01*
X587181D01*
X587331Y382551D01*
X587465Y382598D01*
X587583Y382678D01*
X587685Y382789D01*
X587772Y382932D01*
X587843Y383106D01*
X587898Y383313D01*
X587937Y383551D01*
X587961Y383820D01*
X587969Y384122D01*
X589543D01*
X589551Y383820D01*
D02*
G37*
G36*
X588436Y377453D02*
X590331D01*
X590181Y377437D01*
X590047Y377390D01*
X589929Y377311D01*
X589827Y377201D01*
X589740Y377059D01*
X589669Y376886D01*
X589614Y376681D01*
X589575Y376445D01*
X589551Y376177D01*
X589543Y375878D01*
X587969D01*
X587961Y376177D01*
X587937Y376445D01*
X587898Y376681D01*
X587843Y376886D01*
X587772Y377059D01*
X587685Y377201D01*
X587583Y377311D01*
X587477Y377382D01*
X587367Y377319D01*
X587111Y377141D01*
X586833Y376918D01*
X586209Y376339D01*
X585095Y377453D01*
X585407Y377776D01*
X585897Y378355D01*
X586075Y378611D01*
X586209Y378845D01*
X586298Y379057D01*
X586343Y379246D01*
Y379413D01*
X586298Y379558D01*
X586209Y379680D01*
X588436Y377453D01*
D02*
G37*
G36*
X582797Y355141D02*
X582721Y355037D01*
X582653Y354924D01*
X582594Y354800D01*
X582544Y354667D01*
X582503Y354523D01*
X582472Y354370D01*
X582449Y354206D01*
X582435Y354033D01*
X582431Y353850D01*
X580856D01*
X580851Y354033D01*
X580838Y354206D01*
X580815Y354370D01*
X580784Y354523D01*
X580743Y354667D01*
X580693Y354800D01*
X580634Y354924D01*
X580566Y355037D01*
X580489Y355141D01*
X580403Y355235D01*
X582884D01*
X582797Y355141D01*
D02*
G37*
G36*
X589771Y354320D02*
X589800Y354050D01*
X589844Y353812D01*
X589903Y353606D01*
X589978Y353432D01*
X590067Y353289D01*
X590171Y353178D01*
X590291Y353099D01*
X590426Y353051D01*
X590576Y353035D01*
X587426D01*
X587575Y353051D01*
X587708Y353099D01*
X587825Y353178D01*
X587925Y353289D01*
X588009Y353432D01*
X588076Y353606D01*
X588127Y353812D01*
X588162Y354050D01*
X588180Y354320D01*
X588182Y354622D01*
X589757D01*
X589771Y354320D01*
D02*
G37*
G36*
X586274Y290544D02*
X586113Y290352D01*
X585971Y290156D01*
X585848Y289956D01*
X585744Y289752D01*
X585659Y289543D01*
X585593Y289330D01*
X585546Y289113D01*
X585517Y288892D01*
X585508Y288666D01*
X583933D01*
X583923Y288892D01*
X583895Y289113D01*
X583848Y289330D01*
X583782Y289543D01*
X583697Y289752D01*
X583592Y289956D01*
X583469Y290156D01*
X583327Y290352D01*
X583167Y290544D01*
X582987Y290732D01*
X586454D01*
X586274Y290544D01*
D02*
G37*
G36*
X586017Y274108D02*
X586046Y273887D01*
X586093Y273670D01*
X586159Y273457D01*
X586244Y273249D01*
X586348Y273044D01*
X586471Y272844D01*
X586613Y272648D01*
X586774Y272456D01*
X586954Y272269D01*
X583487D01*
X583667Y272456D01*
X583827Y272648D01*
X583969Y272844D01*
X584092Y273044D01*
X584197Y273249D01*
X584282Y273457D01*
X584348Y273670D01*
X584395Y273887D01*
X584423Y274108D01*
X584433Y274334D01*
X586008D01*
X586017Y274108D01*
D02*
G37*
G36*
X610792Y273615D02*
X610968Y273479D01*
X611155Y273358D01*
X611352Y273255D01*
X611560Y273167D01*
X611778Y273096D01*
X612007Y273042D01*
X612246Y273004D01*
X612495Y272982D01*
X612755Y272976D01*
X610303Y270525D01*
X610298Y270784D01*
X610276Y271034D01*
X610238Y271273D01*
X610183Y271501D01*
X610112Y271719D01*
X610025Y271927D01*
X609921Y272125D01*
X609801Y272311D01*
X609665Y272488D01*
X609512Y272654D01*
X610626Y273768D01*
X610792Y273615D01*
D02*
G37*
G36*
X614736Y272054D02*
X614927Y271893D01*
X615123Y271751D01*
X615324Y271628D01*
X615528Y271524D01*
X615737Y271439D01*
X615949Y271373D01*
X616167Y271325D01*
X616388Y271297D01*
X616613Y271287D01*
Y269713D01*
X616388Y269703D01*
X616167Y269675D01*
X615949Y269627D01*
X615737Y269561D01*
X615528Y269476D01*
X615324Y269372D01*
X615123Y269249D01*
X614927Y269107D01*
X614736Y268946D01*
X614548Y268766D01*
Y272234D01*
X614736Y272054D01*
D02*
G37*
G36*
X639785Y247608D02*
X639813Y247387D01*
X639861Y247170D01*
X639927Y246957D01*
X640012Y246748D01*
X640116Y246544D01*
X640239Y246344D01*
X640381Y246148D01*
X640542Y245956D01*
X640722Y245768D01*
X637255D01*
X637434Y245956D01*
X637595Y246148D01*
X637737Y246344D01*
X637860Y246544D01*
X637964Y246748D01*
X638049Y246957D01*
X638116Y247170D01*
X638163Y247387D01*
X638191Y247608D01*
X638201Y247834D01*
X639776D01*
X639785Y247608D01*
D02*
G37*
%LPC*%
G36*
X588169Y377587D02*
X588002D01*
X587813Y377542D01*
X587601Y377453D01*
X588436D01*
X588314Y377542D01*
X588169Y377587D01*
D02*
G37*
%LPD*%
G36*
X633210Y453310D02*
X633016Y453085D01*
X632845Y452857D01*
X632697Y452627D01*
X632572Y452396D01*
X632470Y452163D01*
X632390Y451928D01*
X632333Y451691D01*
X632299Y451452D01*
X632287Y451212D01*
X630713D01*
X630701Y451452D01*
X630667Y451691D01*
X630610Y451928D01*
X630530Y452163D01*
X630428Y452396D01*
X630303Y452627D01*
X630155Y452857D01*
X629984Y453085D01*
X629790Y453310D01*
X629574Y453535D01*
X633426D01*
X633210Y453310D01*
D02*
G37*
G36*
X635155Y353709D02*
X635337Y353570D01*
X635530Y353448D01*
X635735Y353342D01*
X635952Y353253D01*
X636180Y353181D01*
X636420Y353126D01*
X636672Y353087D01*
X636935Y353064D01*
X637211Y353059D01*
X634677Y350526D01*
X634672Y350801D01*
X634650Y351064D01*
X634611Y351316D01*
X634555Y351556D01*
X634483Y351785D01*
X634394Y352001D01*
X634289Y352206D01*
X634166Y352399D01*
X634027Y352581D01*
X633872Y352751D01*
X634985Y353864D01*
X635155Y353709D01*
D02*
G37*
G36*
X409438Y370168D02*
X408786Y369409D01*
X408521Y369045D01*
X408297Y368690D01*
X408113Y368345D01*
X407971Y368010D01*
X407869Y367686D01*
X407808Y367371D01*
X407787Y367066D01*
X406213D01*
X406192Y367371D01*
X406131Y367686D01*
X406029Y368010D01*
X405887Y368345D01*
X405703Y368690D01*
X405479Y369045D01*
X405214Y369409D01*
X404909Y369784D01*
X404175Y370563D01*
X409825D01*
X409438Y370168D01*
D02*
G37*
G36*
X404246Y352600D02*
X404428Y352451D01*
X404615Y352323D01*
X404804Y352213D01*
X404997Y352123D01*
X405194Y352053D01*
X405394Y352003D01*
X405597Y351972D01*
X405804Y351960D01*
X406014Y351968D01*
X403753Y349706D01*
X403760Y349916D01*
X403749Y350123D01*
X403718Y350326D01*
X403667Y350526D01*
X403597Y350723D01*
X403507Y350916D01*
X403398Y351106D01*
X403269Y351292D01*
X403121Y351475D01*
X402953Y351654D01*
X404066Y352768D01*
X404246Y352600D01*
D02*
G37*
G36*
X590476Y347937D02*
X590343Y347890D01*
X590224Y347811D01*
X590122Y347701D01*
X590035Y347559D01*
X589965Y347386D01*
X589910Y347181D01*
X589870Y346945D01*
X589847Y346677D01*
X589839Y346378D01*
X588264D01*
X588256Y346677D01*
X588232Y346945D01*
X588193Y347181D01*
X588138Y347386D01*
X588067Y347559D01*
X587980Y347701D01*
X587878Y347811D01*
X587760Y347890D01*
X587626Y347937D01*
X587476Y347953D01*
X590626D01*
X590476Y347937D01*
D02*
G37*
G36*
X589650Y325623D02*
X589673Y325354D01*
X589713Y325116D01*
X589768Y324909D01*
X589839Y324735D01*
X589925Y324592D01*
X590028Y324481D01*
X590146Y324402D01*
X590280Y324354D01*
X590429Y324338D01*
X587280D01*
X587429Y324354D01*
X587563Y324402D01*
X587681Y324481D01*
X587783Y324592D01*
X587870Y324735D01*
X587941Y324909D01*
X587996Y325116D01*
X588035Y325354D01*
X588059Y325623D01*
X588067Y325925D01*
X589642D01*
X589650Y325623D01*
D02*
G37*
G36*
X476470Y454144D02*
X476425Y453999D01*
Y453832D01*
X476470Y453643D01*
X476559Y453432D01*
X476692Y453198D01*
X476871Y452942D01*
X477093Y452663D01*
X477672Y452039D01*
X476559Y450926D01*
X476236Y451238D01*
X475657Y451728D01*
X475401Y451906D01*
X475167Y452039D01*
X474955Y452129D01*
X474766Y452173D01*
X474599D01*
X474454Y452129D01*
X474332Y452039D01*
X476559Y454267D01*
X476470Y454144D01*
D02*
G37*
G36*
X482077Y328108D02*
X482105Y327887D01*
X482152Y327670D01*
X482218Y327457D01*
X482303Y327249D01*
X482408Y327044D01*
X482531Y326844D01*
X482673Y326648D01*
X482833Y326456D01*
X483013Y326269D01*
X479546D01*
X479726Y326456D01*
X479887Y326648D01*
X480029Y326844D01*
X480152Y327044D01*
X480256Y327249D01*
X480341Y327457D01*
X480407Y327670D01*
X480454Y327887D01*
X480483Y328108D01*
X480492Y328334D01*
X482067D01*
X482077Y328108D01*
D02*
G37*
G36*
X664240Y425437D02*
X664106Y425390D01*
X663988Y425311D01*
X663886Y425201D01*
X663799Y425059D01*
X663728Y424886D01*
X663673Y424681D01*
X663634Y424445D01*
X663610Y424177D01*
X663602Y423878D01*
X662028D01*
X662020Y424177D01*
X661996Y424445D01*
X661957Y424681D01*
X661902Y424886D01*
X661831Y425059D01*
X661744Y425201D01*
X661642Y425311D01*
X661524Y425390D01*
X661390Y425437D01*
X661240Y425453D01*
X664390D01*
X664240Y425437D01*
D02*
G37*
G36*
X664541Y405848D02*
X665121Y405355D01*
X665378Y405176D01*
X665612Y405041D01*
X665823Y404951D01*
X666012Y404905D01*
X666179Y404904D01*
X666322Y404947D01*
X666444Y405035D01*
X664229Y402820D01*
X664317Y402941D01*
X664360Y403085D01*
X664359Y403252D01*
X664313Y403441D01*
X664223Y403652D01*
X664088Y403886D01*
X663909Y404143D01*
X663685Y404422D01*
X663103Y405047D01*
X664217Y406161D01*
X664541Y405848D01*
D02*
G37*
G36*
X668189Y399937D02*
X668055Y399890D01*
X667937Y399811D01*
X667835Y399701D01*
X667748Y399559D01*
X667677Y399386D01*
X667622Y399181D01*
X667583Y398945D01*
X667559Y398677D01*
X667551Y398378D01*
X665976D01*
X665969Y398677D01*
X665945Y398945D01*
X665906Y399181D01*
X665850Y399386D01*
X665780Y399559D01*
X665693Y399701D01*
X665591Y399811D01*
X665473Y399890D01*
X665339Y399937D01*
X665189Y399953D01*
X668339D01*
X668189Y399937D01*
D02*
G37*
G36*
X667854Y383820D02*
X667878Y383551D01*
X667917Y383313D01*
X667972Y383106D01*
X668043Y382932D01*
X668130Y382789D01*
X668232Y382678D01*
X668350Y382598D01*
X668484Y382551D01*
X668634Y382535D01*
X665484D01*
X665634Y382551D01*
X665768Y382598D01*
X665886Y382678D01*
X665988Y382789D01*
X666075Y382932D01*
X666146Y383106D01*
X666201Y383313D01*
X666240Y383551D01*
X666264Y383820D01*
X666272Y384122D01*
X667846D01*
X667854Y383820D01*
D02*
G37*
G36*
X668484Y377437D02*
X668350Y377390D01*
X668232Y377311D01*
X668130Y377201D01*
X668043Y377059D01*
X667972Y376886D01*
X667917Y376681D01*
X667878Y376445D01*
X667854Y376177D01*
X667846Y375878D01*
X666272D01*
X666264Y376177D01*
X666240Y376445D01*
X666201Y376681D01*
X666146Y376886D01*
X666075Y377059D01*
X665988Y377201D01*
X665886Y377311D01*
X665768Y377390D01*
X665634Y377437D01*
X665484Y377453D01*
X668634D01*
X668484Y377437D01*
D02*
G37*
G36*
X667559Y354320D02*
X667583Y354051D01*
X667622Y353813D01*
X667677Y353606D01*
X667748Y353432D01*
X667835Y353289D01*
X667937Y353178D01*
X668055Y353099D01*
X668189Y353051D01*
X668339Y353035D01*
X665189D01*
X665339Y353051D01*
X665473Y353099D01*
X665591Y353178D01*
X665693Y353289D01*
X665780Y353432D01*
X665850Y353606D01*
X665906Y353813D01*
X665945Y354051D01*
X665969Y354320D01*
X665976Y354622D01*
X667551D01*
X667559Y354320D01*
D02*
G37*
G36*
X668189Y347937D02*
X668055Y347890D01*
X667937Y347811D01*
X667835Y347701D01*
X667748Y347559D01*
X667677Y347386D01*
X667622Y347181D01*
X667583Y346945D01*
X667559Y346677D01*
X667551Y346378D01*
X665976D01*
X665969Y346677D01*
X665945Y346945D01*
X665906Y347181D01*
X665850Y347386D01*
X665780Y347559D01*
X665693Y347701D01*
X665591Y347811D01*
X665473Y347890D01*
X665339Y347937D01*
X665189Y347953D01*
X668339D01*
X668189Y347937D01*
D02*
G37*
G36*
X667756Y325623D02*
X667779Y325354D01*
X667819Y325116D01*
X667874Y324909D01*
X667945Y324735D01*
X668032Y324592D01*
X668134Y324481D01*
X668252Y324402D01*
X668386Y324354D01*
X668535Y324338D01*
X665386D01*
X665535Y324354D01*
X665669Y324402D01*
X665787Y324481D01*
X665890Y324592D01*
X665976Y324735D01*
X666047Y324909D01*
X666102Y325116D01*
X666142Y325354D01*
X666165Y325623D01*
X666173Y325925D01*
X667748D01*
X667756Y325623D01*
D02*
G37*
G36*
X372596Y325420D02*
X372551Y325275D01*
Y325108D01*
X372596Y324919D01*
X372685Y324707D01*
X372818Y324473D01*
X372997Y324217D01*
X373219Y323939D01*
X373798Y323315D01*
X372685Y322202D01*
X372362Y322513D01*
X371783Y323003D01*
X371527Y323182D01*
X371293Y323315D01*
X371081Y323404D01*
X370892Y323449D01*
X370725D01*
X370580Y323404D01*
X370458Y323315D01*
X372685Y325542D01*
X372596Y325420D01*
D02*
G37*
G36*
X409138Y282624D02*
X409162Y282354D01*
X409201Y282116D01*
X409256Y281909D01*
X409327Y281735D01*
X409413Y281592D01*
X409516Y281481D01*
X409634Y281402D01*
X409768Y281354D01*
X409917Y281338D01*
X406768D01*
X406917Y281354D01*
X407051Y281402D01*
X407169Y281481D01*
X407272Y281592D01*
X407358Y281735D01*
X407429Y281909D01*
X407484Y282116D01*
X407524Y282354D01*
X407547Y282624D01*
X407555Y282925D01*
X409130D01*
X409138Y282624D01*
D02*
G37*
G36*
X407773Y253848D02*
X408354Y253355D01*
X408610Y253176D01*
X408844Y253041D01*
X409055Y252951D01*
X409244Y252905D01*
X409411Y252904D01*
X409555Y252947D01*
X409676Y253035D01*
X407461Y250820D01*
X407549Y250941D01*
X407592Y251085D01*
X407591Y251252D01*
X407545Y251441D01*
X407455Y251652D01*
X407320Y251886D01*
X407141Y252143D01*
X406917Y252421D01*
X406335Y253047D01*
X407449Y254161D01*
X407773Y253848D01*
D02*
G37*
G36*
X498274Y322544D02*
X498113Y322352D01*
X497971Y322156D01*
X497848Y321956D01*
X497744Y321751D01*
X497659Y321543D01*
X497593Y321330D01*
X497546Y321113D01*
X497517Y320892D01*
X497508Y320666D01*
X495933D01*
X495924Y320892D01*
X495895Y321113D01*
X495848Y321330D01*
X495782Y321543D01*
X495696Y321751D01*
X495592Y321956D01*
X495469Y322156D01*
X495328Y322352D01*
X495167Y322544D01*
X494987Y322731D01*
X498454D01*
X498274Y322544D01*
D02*
G37*
G36*
X479322Y256208D02*
X479153Y256022D01*
X479003Y255817D01*
X478871Y255595D01*
X478757Y255354D01*
X478661Y255095D01*
X478583Y254818D01*
X478523Y254523D01*
X478482Y254210D01*
X478458Y253879D01*
X478453Y253530D01*
X475529Y256453D01*
X475879Y256458D01*
X476210Y256482D01*
X476523Y256523D01*
X476818Y256583D01*
X477095Y256661D01*
X477354Y256757D01*
X477595Y256871D01*
X477817Y257003D01*
X478022Y257154D01*
X478208Y257322D01*
X479322Y256208D01*
D02*
G37*
G36*
X402943Y399548D02*
X403041Y399465D01*
X403150Y399392D01*
X403269Y399329D01*
X403399Y399275D01*
X403540Y399232D01*
X403691Y399197D01*
X403854Y399173D01*
X404026Y399158D01*
X404210Y399153D01*
X404076Y397579D01*
X403893Y397575D01*
X403555Y397542D01*
X403400Y397513D01*
X403254Y397476D01*
X403118Y397431D01*
X402991Y397377D01*
X402874Y397316D01*
X402766Y397246D01*
X402668Y397168D01*
X402855Y399641D01*
X402943Y399548D01*
D02*
G37*
G36*
X433755Y347024D02*
X433495Y347018D01*
X433246Y346996D01*
X433007Y346958D01*
X432778Y346903D01*
X432560Y346832D01*
X432352Y346745D01*
X432155Y346642D01*
X431968Y346521D01*
X431792Y346385D01*
X431626Y346232D01*
X430512Y347346D01*
X430665Y347512D01*
X430801Y347689D01*
X430921Y347875D01*
X431025Y348073D01*
X431112Y348281D01*
X431183Y348499D01*
X431238Y348727D01*
X431276Y348966D01*
X431298Y349216D01*
X431303Y349475D01*
X433755Y347024D01*
D02*
G37*
G36*
X433292Y327615D02*
X433468Y327479D01*
X433655Y327358D01*
X433852Y327255D01*
X434060Y327168D01*
X434278Y327097D01*
X434507Y327042D01*
X434746Y327004D01*
X434995Y326982D01*
X435255Y326976D01*
X432803Y324525D01*
X432798Y324784D01*
X432776Y325034D01*
X432738Y325273D01*
X432683Y325501D01*
X432612Y325719D01*
X432525Y325927D01*
X432421Y326125D01*
X432301Y326311D01*
X432165Y326488D01*
X432012Y326654D01*
X433126Y327768D01*
X433292Y327615D01*
D02*
G37*
G36*
X437761Y324216D02*
X437783Y323966D01*
X437821Y323727D01*
X437876Y323499D01*
X437947Y323281D01*
X438034Y323073D01*
X438138Y322875D01*
X438258Y322689D01*
X438394Y322512D01*
X438547Y322346D01*
X437434Y321232D01*
X437267Y321385D01*
X437091Y321521D01*
X436904Y321642D01*
X436707Y321745D01*
X436499Y321832D01*
X436281Y321903D01*
X436052Y321958D01*
X435813Y321996D01*
X435564Y322018D01*
X435304Y322024D01*
X437756Y324475D01*
X437761Y324216D01*
D02*
G37*
G36*
X439547Y304154D02*
X439379Y303975D01*
X439231Y303792D01*
X439102Y303606D01*
X438993Y303416D01*
X438903Y303223D01*
X438833Y303026D01*
X438782Y302826D01*
X438751Y302623D01*
X438739Y302416D01*
X438747Y302206D01*
X436486Y304468D01*
X436696Y304460D01*
X436903Y304471D01*
X437106Y304503D01*
X437306Y304553D01*
X437502Y304624D01*
X437696Y304713D01*
X437885Y304822D01*
X438071Y304951D01*
X438254Y305100D01*
X438434Y305268D01*
X439547Y304154D01*
D02*
G37*
G36*
X411988D02*
X411835Y303988D01*
X411699Y303811D01*
X411579Y303625D01*
X411475Y303427D01*
X411388Y303219D01*
X411317Y303001D01*
X411262Y302773D01*
X411224Y302534D01*
X411202Y302285D01*
X411197Y302025D01*
X408745Y304476D01*
X409005Y304482D01*
X409254Y304504D01*
X409493Y304542D01*
X409722Y304596D01*
X409940Y304667D01*
X410148Y304755D01*
X410345Y304858D01*
X410532Y304978D01*
X410708Y305115D01*
X410874Y305268D01*
X411988Y304154D01*
D02*
G37*
G36*
X411202Y301715D02*
X411224Y301466D01*
X411262Y301227D01*
X411317Y300999D01*
X411388Y300781D01*
X411475Y300573D01*
X411579Y300376D01*
X411699Y300189D01*
X411835Y300012D01*
X411988Y299846D01*
X410874Y298732D01*
X410708Y298885D01*
X410532Y299022D01*
X410345Y299142D01*
X410148Y299245D01*
X409940Y299332D01*
X409722Y299404D01*
X409493Y299458D01*
X409254Y299496D01*
X409005Y299518D01*
X408745Y299524D01*
X411197Y301975D01*
X411202Y301715D01*
D02*
G37*
G36*
X437833Y300044D02*
X437673Y299852D01*
X437531Y299656D01*
X437408Y299456D01*
X437303Y299252D01*
X437218Y299043D01*
X437152Y298830D01*
X437105Y298613D01*
X437077Y298392D01*
X437067Y298166D01*
X435492D01*
X435483Y298392D01*
X435454Y298613D01*
X435407Y298830D01*
X435341Y299043D01*
X435256Y299252D01*
X435152Y299456D01*
X435029Y299656D01*
X434887Y299852D01*
X434726Y300044D01*
X434546Y300232D01*
X438013D01*
X437833Y300044D01*
D02*
G37*
G36*
X446295Y267714D02*
X446319Y267444D01*
X446358Y267206D01*
X446413Y267000D01*
X446484Y266826D01*
X446571Y266683D01*
X446673Y266572D01*
X446791Y266492D01*
X446925Y266445D01*
X447075Y266429D01*
X443925D01*
X444075Y266445D01*
X444209Y266492D01*
X444327Y266572D01*
X444429Y266683D01*
X444516Y266826D01*
X444587Y267000D01*
X444642Y267206D01*
X444681Y267444D01*
X444705Y267714D01*
X444713Y268016D01*
X446287D01*
X446295Y267714D01*
D02*
G37*
G36*
X442978Y247153D02*
X443183Y247003D01*
X443405Y246871D01*
X443646Y246757D01*
X443905Y246661D01*
X444182Y246583D01*
X444477Y246523D01*
X444790Y246482D01*
X445121Y246458D01*
X445471Y246453D01*
X442547Y243530D01*
X442542Y243879D01*
X442518Y244210D01*
X442477Y244523D01*
X442417Y244818D01*
X442339Y245095D01*
X442243Y245354D01*
X442129Y245595D01*
X441997Y245817D01*
X441847Y246022D01*
X441678Y246208D01*
X442792Y247322D01*
X442978Y247153D01*
D02*
G37*
G36*
X668101Y287544D02*
X667940Y287352D01*
X667798Y287156D01*
X667675Y286956D01*
X667571Y286752D01*
X667486Y286543D01*
X667420Y286330D01*
X667372Y286113D01*
X667344Y285892D01*
X667335Y285666D01*
X665760D01*
X665750Y285892D01*
X665722Y286113D01*
X665675Y286330D01*
X665608Y286543D01*
X665523Y286752D01*
X665419Y286956D01*
X665296Y287156D01*
X665154Y287352D01*
X664993Y287544D01*
X664814Y287732D01*
X668281D01*
X668101Y287544D01*
D02*
G37*
G36*
X667344Y270108D02*
X667372Y269887D01*
X667420Y269670D01*
X667486Y269457D01*
X667571Y269249D01*
X667675Y269044D01*
X667798Y268844D01*
X667940Y268648D01*
X668101Y268456D01*
X668281Y268268D01*
X664814D01*
X664993Y268456D01*
X665154Y268648D01*
X665296Y268844D01*
X665419Y269044D01*
X665523Y269249D01*
X665608Y269457D01*
X665675Y269670D01*
X665722Y269887D01*
X665750Y270108D01*
X665760Y270334D01*
X667335D01*
X667344Y270108D01*
D02*
G37*
G36*
X668101Y264544D02*
X667940Y264352D01*
X667798Y264156D01*
X667675Y263956D01*
X667571Y263752D01*
X667486Y263543D01*
X667420Y263330D01*
X667372Y263113D01*
X667344Y262892D01*
X667335Y262666D01*
X665760D01*
X665750Y262892D01*
X665722Y263113D01*
X665675Y263330D01*
X665608Y263543D01*
X665523Y263752D01*
X665419Y263956D01*
X665296Y264156D01*
X665154Y264352D01*
X664993Y264544D01*
X664814Y264732D01*
X668281D01*
X668101Y264544D01*
D02*
G37*
G36*
X667344Y247608D02*
X667372Y247387D01*
X667420Y247170D01*
X667486Y246957D01*
X667571Y246748D01*
X667675Y246544D01*
X667798Y246344D01*
X667940Y246148D01*
X668101Y245956D01*
X668281Y245768D01*
X664814D01*
X664993Y245956D01*
X665154Y246148D01*
X665296Y246344D01*
X665419Y246544D01*
X665523Y246748D01*
X665608Y246957D01*
X665675Y247170D01*
X665722Y247387D01*
X665750Y247608D01*
X665760Y247834D01*
X667335D01*
X667344Y247608D01*
D02*
G37*
G36*
X524255Y322024D02*
X523995Y322018D01*
X523746Y321996D01*
X523507Y321958D01*
X523278Y321903D01*
X523060Y321832D01*
X522852Y321745D01*
X522655Y321642D01*
X522468Y321521D01*
X522292Y321385D01*
X522126Y321232D01*
X521012Y322346D01*
X521165Y322512D01*
X521301Y322689D01*
X521421Y322875D01*
X521525Y323073D01*
X521612Y323281D01*
X521683Y323499D01*
X521738Y323727D01*
X521776Y323966D01*
X521798Y324216D01*
X521803Y324475D01*
X524255Y322024D01*
D02*
G37*
G36*
X479322Y246208D02*
X479153Y246022D01*
X479003Y245817D01*
X478871Y245595D01*
X478757Y245354D01*
X478661Y245095D01*
X478583Y244818D01*
X478523Y244523D01*
X478482Y244210D01*
X478458Y243879D01*
X478453Y243530D01*
X475529Y246453D01*
X475879Y246458D01*
X476210Y246482D01*
X476523Y246523D01*
X476818Y246583D01*
X477095Y246661D01*
X477354Y246757D01*
X477595Y246871D01*
X477817Y247003D01*
X478022Y247153D01*
X478208Y247322D01*
X479322Y246208D01*
D02*
G37*
G36*
X412454Y250058D02*
X412409Y249913D01*
Y249746D01*
X412454Y249556D01*
X412543Y249345D01*
X412677Y249111D01*
X412855Y248855D01*
X413077Y248576D01*
X413657Y247953D01*
X412543Y246839D01*
X412220Y247151D01*
X411641Y247641D01*
X411385Y247819D01*
X411151Y247953D01*
X410940Y248042D01*
X410750Y248087D01*
X410583D01*
X410438Y248042D01*
X410316Y247953D01*
X412543Y250180D01*
X412454Y250058D01*
D02*
G37*
G36*
X412515Y224047D02*
X412202Y223723D01*
X411710Y223143D01*
X411530Y222886D01*
X411395Y222652D01*
X411305Y222441D01*
X411259Y222252D01*
X411258Y222085D01*
X411302Y221941D01*
X411389Y221820D01*
X409174Y224035D01*
X409296Y223947D01*
X409440Y223904D01*
X409606Y223905D01*
X409795Y223951D01*
X410007Y224041D01*
X410241Y224176D01*
X410497Y224355D01*
X410776Y224579D01*
X411402Y225161D01*
X412515Y224047D01*
D02*
G37*
G36*
X410280Y218937D02*
X410146Y218890D01*
X410028Y218811D01*
X409925Y218701D01*
X409839Y218559D01*
X409768Y218386D01*
X409713Y218181D01*
X409673Y217945D01*
X409650Y217677D01*
X409642Y217378D01*
X408067D01*
X408059Y217677D01*
X408036Y217945D01*
X407996Y218181D01*
X407941Y218386D01*
X407870Y218559D01*
X407784Y218701D01*
X407681Y218811D01*
X407563Y218890D01*
X407429Y218937D01*
X407280Y218953D01*
X410429D01*
X410280Y218937D01*
D02*
G37*
G36*
X402220Y197547D02*
X401907Y197223D01*
X401414Y196643D01*
X401235Y196386D01*
X401100Y196152D01*
X401010Y195941D01*
X400964Y195752D01*
X400963Y195585D01*
X401006Y195441D01*
X401094Y195320D01*
X398879Y197535D01*
X399000Y197447D01*
X399144Y197404D01*
X399311Y197405D01*
X399500Y197451D01*
X399711Y197541D01*
X399945Y197676D01*
X400202Y197855D01*
X400481Y198079D01*
X401106Y198661D01*
X402220Y197547D01*
D02*
G37*
G36*
X345359Y214824D02*
X345610Y214606D01*
X345861Y214414D01*
X346112Y214248D01*
X346363Y214107D01*
X346614Y213992D01*
X346865Y213903D01*
X347116Y213839D01*
X347367Y213800D01*
X347618Y213787D01*
Y212213D01*
X347367Y212200D01*
X347116Y212161D01*
X346865Y212097D01*
X346614Y212008D01*
X346363Y211893D01*
X346112Y211752D01*
X345861Y211586D01*
X345610Y211394D01*
X345359Y211176D01*
X345109Y210933D01*
Y215067D01*
X345359Y214824D01*
D02*
G37*
G36*
X386478Y198209D02*
X386660Y198070D01*
X386853Y197948D01*
X387058Y197842D01*
X387274Y197753D01*
X387503Y197681D01*
X387743Y197626D01*
X387995Y197587D01*
X388258Y197564D01*
X388533Y197559D01*
X386000Y195026D01*
X385995Y195301D01*
X385972Y195564D01*
X385933Y195816D01*
X385878Y196056D01*
X385806Y196285D01*
X385717Y196501D01*
X385611Y196706D01*
X385489Y196899D01*
X385350Y197081D01*
X385195Y197251D01*
X386308Y198364D01*
X386478Y198209D01*
D02*
G37*
G36*
X399984Y192437D02*
X399850Y192390D01*
X399732Y192311D01*
X399630Y192201D01*
X399543Y192059D01*
X399472Y191886D01*
X399417Y191681D01*
X399378Y191445D01*
X399354Y191177D01*
X399346Y190878D01*
X397772D01*
X397764Y191177D01*
X397740Y191445D01*
X397701Y191681D01*
X397646Y191886D01*
X397575Y192059D01*
X397488Y192201D01*
X397386Y192311D01*
X397268Y192390D01*
X397134Y192437D01*
X396984Y192453D01*
X400134D01*
X399984Y192437D01*
D02*
G37*
G36*
X416041Y166848D02*
X416621Y166355D01*
X416878Y166176D01*
X417111Y166041D01*
X417323Y165951D01*
X417512Y165905D01*
X417678Y165904D01*
X417822Y165947D01*
X417944Y166035D01*
X415729Y163820D01*
X415816Y163941D01*
X415860Y164085D01*
X415859Y164252D01*
X415813Y164441D01*
X415723Y164652D01*
X415588Y164886D01*
X415408Y165143D01*
X415184Y165421D01*
X414603Y166047D01*
X415717Y167161D01*
X416041Y166848D01*
D02*
G37*
G36*
X354000Y164000D02*
Y152500D01*
X337000D01*
Y131000D01*
X341500Y126500D01*
X543500D01*
Y138000D01*
X549000D01*
Y137000D01*
X550500Y135500D01*
Y104000D01*
X330500D01*
Y118500D01*
X320500D01*
X317500Y121500D01*
Y164500D01*
X354000Y164000D01*
D02*
G37*
G36*
X419689Y160937D02*
X419555Y160890D01*
X419437Y160811D01*
X419335Y160701D01*
X419248Y160559D01*
X419177Y160386D01*
X419122Y160181D01*
X419082Y159945D01*
X419059Y159677D01*
X419051Y159378D01*
X417476D01*
X417468Y159677D01*
X417445Y159945D01*
X417405Y160181D01*
X417350Y160386D01*
X417279Y160559D01*
X417193Y160701D01*
X417090Y160811D01*
X416972Y160890D01*
X416838Y160937D01*
X416689Y160953D01*
X419838D01*
X419689Y160937D01*
D02*
G37*
G36*
X605458Y164121D02*
X605482Y163790D01*
X605523Y163477D01*
X605583Y163182D01*
X605661Y162905D01*
X605757Y162646D01*
X605871Y162405D01*
X606003Y162183D01*
X606153Y161978D01*
X606322Y161792D01*
X605208Y160678D01*
X605022Y160847D01*
X604817Y160997D01*
X604595Y161129D01*
X604354Y161243D01*
X604095Y161339D01*
X603818Y161417D01*
X603523Y161477D01*
X603210Y161518D01*
X602879Y161542D01*
X602529Y161547D01*
X605453Y164471D01*
X605458Y164121D01*
D02*
G37*
G36*
X621295Y138706D02*
X621319Y138436D01*
X621358Y138198D01*
X621413Y137992D01*
X621484Y137818D01*
X621571Y137675D01*
X621673Y137564D01*
X621791Y137484D01*
X621925Y137437D01*
X622075Y137421D01*
X618925D01*
X619075Y137437D01*
X619209Y137484D01*
X619327Y137564D01*
X619429Y137675D01*
X619516Y137818D01*
X619587Y137992D01*
X619642Y138198D01*
X619681Y138436D01*
X619705Y138706D01*
X619713Y139008D01*
X621287D01*
X621295Y138706D01*
D02*
G37*
G36*
X491333Y158044D02*
X491173Y157852D01*
X491031Y157656D01*
X490908Y157456D01*
X490803Y157252D01*
X490718Y157043D01*
X490652Y156830D01*
X490605Y156613D01*
X490577Y156392D01*
X490567Y156166D01*
X488992D01*
X488983Y156392D01*
X488954Y156613D01*
X488907Y156830D01*
X488841Y157043D01*
X488756Y157252D01*
X488652Y157456D01*
X488529Y157656D01*
X488387Y157852D01*
X488226Y158044D01*
X488046Y158231D01*
X491513D01*
X491333Y158044D01*
D02*
G37*
G36*
X493139Y137458D02*
X493720Y136965D01*
X493976Y136786D01*
X494210Y136651D01*
X494421Y136561D01*
X494611Y136515D01*
X494777Y136514D01*
X494921Y136557D01*
X495042Y136645D01*
X492827Y134430D01*
X492915Y134552D01*
X492958Y134695D01*
X492957Y134862D01*
X492911Y135051D01*
X492821Y135262D01*
X492686Y135496D01*
X492507Y135753D01*
X492283Y136032D01*
X491702Y136657D01*
X492815Y137771D01*
X493139Y137458D01*
D02*
G37*
G36*
X463774Y158044D02*
X463613Y157852D01*
X463471Y157656D01*
X463348Y157456D01*
X463244Y157252D01*
X463159Y157043D01*
X463093Y156830D01*
X463046Y156613D01*
X463017Y156392D01*
X463008Y156166D01*
X461433D01*
X461423Y156392D01*
X461395Y156613D01*
X461348Y156830D01*
X461282Y157043D01*
X461197Y157252D01*
X461092Y157456D01*
X460969Y157656D01*
X460827Y157852D01*
X460667Y158044D01*
X460487Y158231D01*
X463954D01*
X463774Y158044D01*
D02*
G37*
G36*
X457525Y136384D02*
X457365Y136208D01*
X457222Y136018D01*
X457096Y135815D01*
X456987Y135597D01*
X456896Y135366D01*
X456822Y135120D01*
X456765Y134861D01*
X456725Y134588D01*
X456702Y134300D01*
X456697Y133999D01*
X454027Y136669D01*
X454328Y136675D01*
X454615Y136697D01*
X454889Y136737D01*
X455148Y136794D01*
X455393Y136868D01*
X455625Y136960D01*
X455842Y137068D01*
X456046Y137194D01*
X456236Y137337D01*
X456411Y137497D01*
X457525Y136384D01*
D02*
G37*
G36*
X608493Y230908D02*
X608445Y230772D01*
X608403Y230545D01*
X608366Y230228D01*
X608309Y229323D01*
X608264Y226425D01*
X603736D01*
X603733Y227286D01*
X603507Y230908D01*
X603453Y230953D01*
X608547D01*
X608493Y230908D01*
D02*
G37*
G36*
X662620Y209563D02*
X662086Y209558D01*
X661120Y209483D01*
X660689Y209414D01*
X660291Y209323D01*
X659928Y209210D01*
X659599Y209076D01*
X659305Y208921D01*
X659044Y208744D01*
X658818Y208545D01*
X657705Y209659D01*
X657903Y209885D01*
X658080Y210145D01*
X658235Y210440D01*
X658369Y210769D01*
X658482Y211132D01*
X658573Y211529D01*
X658643Y211961D01*
X658691Y212426D01*
X658723Y213461D01*
X662620Y209563D01*
D02*
G37*
G36*
X664085Y189480D02*
X663951Y189433D01*
X663833Y189355D01*
X663730Y189244D01*
X663644Y189102D01*
X663573Y188929D01*
X663518Y188725D01*
X663478Y188488D01*
X663455Y188221D01*
X663447Y187921D01*
X661872D01*
X661864Y188221D01*
X661840Y188488D01*
X661801Y188725D01*
X661746Y188929D01*
X661675Y189102D01*
X661588Y189244D01*
X661486Y189355D01*
X661368Y189433D01*
X661234Y189480D01*
X661085Y189496D01*
X664234D01*
X664085Y189480D01*
D02*
G37*
G36*
X662915Y162464D02*
X662647Y162191D01*
X662052Y161508D01*
X661923Y161325D01*
X661827Y161164D01*
X661766Y161026D01*
X661739Y160911D01*
X661747Y160818D01*
X661789Y160748D01*
X660084Y162452D01*
X660155Y162410D01*
X660248Y162403D01*
X660363Y162429D01*
X660501Y162491D01*
X660661Y162586D01*
X660844Y162716D01*
X661050Y162880D01*
X661528Y163311D01*
X661801Y163578D01*
X662915Y162464D01*
D02*
G37*
G36*
X654261Y143217D02*
X654521Y143040D01*
X654816Y142885D01*
X655145Y142751D01*
X655508Y142638D01*
X655905Y142547D01*
X656337Y142477D01*
X656803Y142429D01*
X657837Y142397D01*
X653939Y138500D01*
X653934Y139034D01*
X653859Y140000D01*
X653790Y140431D01*
X653698Y140829D01*
X653586Y141192D01*
X653452Y141521D01*
X653297Y141815D01*
X653120Y142076D01*
X652921Y142302D01*
X654035Y143415D01*
X654261Y143217D01*
D02*
G37*
D24*
X388157Y134000D02*
D03*
X493512Y435500D02*
D03*
X608539Y322000D02*
D03*
X647276D02*
D03*
X388657Y279000D02*
D03*
X463488Y414000D02*
D03*
X560500Y370000D02*
D03*
X560000Y405815D02*
D03*
D25*
X407843Y134000D02*
D03*
X463488Y435500D02*
D03*
X588854Y322000D02*
D03*
X666961D02*
D03*
X408343Y279000D02*
D03*
X493512Y414000D02*
D03*
D29*
X388559Y195000D02*
D03*
X618579Y350500D02*
D03*
X657059Y380000D02*
D03*
X609051Y402500D02*
D03*
X598756Y380000D02*
D03*
X646764Y402500D02*
D03*
X642815Y428000D02*
D03*
X637236Y350500D02*
D03*
X613000Y428000D02*
D03*
X513500Y418500D02*
D03*
X515000Y296500D02*
D03*
X477500D02*
D03*
X389996Y250500D02*
D03*
X388854Y221500D02*
D03*
X388736Y163500D02*
D03*
X586000Y233500D02*
D03*
D30*
X398559Y195000D02*
D03*
X589051Y350500D02*
D03*
X667059Y380000D02*
D03*
X589051Y402500D02*
D03*
X588756Y380000D02*
D03*
X666764Y402500D02*
D03*
X662815Y428000D02*
D03*
X666764Y350500D02*
D03*
X593000Y428000D02*
D03*
X533500Y418500D02*
D03*
X535000Y296500D02*
D03*
X457500D02*
D03*
X409996Y250500D02*
D03*
X408854Y221500D02*
D03*
X418264Y163500D02*
D03*
X606000Y233500D02*
D03*
D38*
X560500Y380000D02*
D03*
X560000Y425500D02*
D03*
D39*
X657876Y138461D02*
D03*
Y148500D02*
D03*
X662659Y213500D02*
D03*
Y203461D02*
D03*
D40*
X657876Y158539D02*
D03*
X662659Y193421D02*
D03*
D41*
X478129Y264487D02*
X478144Y264499D01*
X572500Y164500D02*
X586000Y178000D01*
Y233500D01*
X475500Y263500D02*
X475540Y263496D01*
X482500Y267996D02*
X484000Y269497D01*
Y290000D01*
X482674Y291326D02*
X484000Y290000D01*
X477500Y296500D02*
X482674Y291326D01*
X475540Y263496D02*
X476895D01*
X478129Y264487D01*
X478144Y264499D02*
X482500Y267996D01*
X606000Y198000D02*
Y233500D01*
X602500Y194500D02*
X606000Y198000D01*
X527000Y385000D02*
Y412000D01*
X533500Y418500D01*
X657876Y148500D02*
X662600D01*
X665100Y146000D01*
Y134000D02*
Y146000D01*
X662300Y131200D02*
X665100Y134000D01*
X650700Y131200D02*
X662300D01*
X629400Y152500D02*
X650700Y131200D01*
X629400Y152500D02*
Y167600D01*
X602500Y194500D02*
X629400Y167600D01*
D42*
X531012Y302512D02*
X553000Y324500D01*
X527500Y299001D02*
X531011Y302512D01*
X531012D01*
X527500Y222107D02*
Y299001D01*
Y222107D02*
X553000Y196607D01*
X511500Y180383D02*
X557171Y134712D01*
X519524Y238076D02*
Y291976D01*
X511500Y233500D02*
X514948D01*
X519524Y238076D01*
X515000Y296500D02*
X519524Y291976D01*
X511500Y180383D02*
Y233500D01*
X557171Y134301D02*
Y134712D01*
X553000Y324500D02*
Y342041D01*
X506500Y345500D02*
X549541D01*
X553000Y342041D01*
X497000Y355000D02*
X506500Y345500D01*
X561000Y160500D02*
Y244000D01*
X541500Y263500D02*
X561000Y244000D01*
Y160500D02*
X588052Y133448D01*
X553000Y158472D02*
Y196607D01*
Y158472D02*
X577171Y134301D01*
X588052Y133448D02*
Y133448D01*
X513500Y371500D02*
Y418500D01*
X497000Y355000D02*
X513500Y371500D01*
X541500Y263500D02*
Y290000D01*
X535000Y296500D02*
X541500Y290000D01*
D43*
X567740Y161360D02*
X572000Y157100D01*
X567740Y161360D02*
Y169740D01*
X578100Y180100D01*
X370135Y377500D02*
X374136Y373498D01*
X362500Y377500D02*
X370135D01*
X347272Y392728D02*
X362500Y377500D01*
X347272Y392728D02*
Y397150D01*
X344018Y400404D02*
X347272Y397150D01*
X344018Y400404D02*
Y404769D01*
X343287Y405500D02*
X344018Y404769D01*
X409996Y250500D02*
X413995Y246501D01*
X404541Y255955D02*
X409996Y250500D01*
X572000Y157100D02*
X587774D01*
X610500Y134374D01*
X578100Y369344D02*
X588756Y380000D01*
X578100Y180100D02*
Y369344D01*
X370559Y213000D02*
X388559Y195000D01*
X343000Y213000D02*
X370559D01*
X346329Y223829D02*
X358600Y236100D01*
X344178Y221678D02*
Y223006D01*
X345001Y223829D02*
X346329D01*
X358600Y236100D02*
Y360600D01*
X344178Y223006D02*
X345001Y223829D01*
X360415Y232415D02*
X366800Y238800D01*
Y257143D01*
X358600Y360600D02*
X370000Y372000D01*
X503000Y331500D02*
X534720D01*
X492200Y342300D02*
Y380200D01*
Y342300D02*
X503000Y331500D01*
X534720D02*
X541720Y324500D01*
X581643Y301636D02*
X612780Y270500D01*
X581643Y301636D02*
Y356500D01*
X403500Y358280D02*
X407000Y361780D01*
X403500Y352220D02*
X406220Y349500D01*
X403500Y352220D02*
Y358280D01*
X436280Y302000D02*
X439000Y304720D01*
X435280Y324500D02*
X439000Y320780D01*
Y304720D02*
Y320780D01*
X436280Y287629D02*
Y302000D01*
X430000Y329780D02*
X435280Y324500D01*
X430000Y345720D02*
X433780Y349500D01*
X430000Y329780D02*
Y345720D01*
X401500Y398500D02*
X401634Y398366D01*
X405634D01*
X413500Y390500D01*
Y306780D02*
Y390500D01*
X408720Y302000D02*
X413500Y306780D01*
X467000Y249500D02*
Y277000D01*
X472300Y282300D01*
X408854Y221500D02*
X413995Y226640D01*
X404541Y275198D02*
X408343Y279000D01*
X366800Y257143D02*
X388657Y279000D01*
X588756Y365395D02*
Y380000D01*
Y365395D02*
X589051Y350500D01*
X593000Y406449D02*
Y428000D01*
X589051Y402500D02*
X593000Y406449D01*
X370000Y326000D02*
X374136Y330136D01*
X370000Y326000D02*
X408343Y287657D01*
Y279000D02*
Y287657D01*
X418264Y144421D02*
Y163500D01*
X407843Y134000D02*
X418264Y144421D01*
X481280Y324500D02*
Y447319D01*
X473500Y455098D02*
X481280Y447319D01*
X560000Y405815D02*
X564200Y410015D01*
Y441400D01*
X563900Y441700D02*
X564200Y441400D01*
X563900Y441700D02*
Y460000D01*
X564900Y461000D01*
X601900D01*
X617400Y445500D01*
Y386600D02*
Y445500D01*
X614200Y383400D02*
X617400Y386600D01*
X614200Y314288D02*
Y383400D01*
Y314288D02*
X638988Y289500D01*
X497000Y365000D02*
X502700Y370700D01*
Y431700D01*
X526500Y455500D01*
X662815Y406449D02*
Y428000D01*
Y406449D02*
X666764Y402500D01*
X641500Y455500D02*
X657059Y439941D01*
Y380000D02*
Y439941D01*
X631500Y356236D02*
Y455500D01*
Y356236D02*
X637236Y350500D01*
X621500Y358100D02*
Y455500D01*
Y358100D02*
X623000Y356600D01*
Y346276D02*
Y356600D01*
Y346276D02*
X647276Y322000D01*
X612780Y270500D02*
X621500D01*
X638988Y253012D01*
Y244000D02*
Y253012D01*
X493512Y388488D02*
Y414000D01*
Y388488D02*
X497000Y385000D01*
X463500Y455098D02*
X467700Y450898D01*
Y393000D02*
Y450898D01*
Y393000D02*
X472300Y388400D01*
Y282300D02*
Y388400D01*
X458600Y387680D02*
X468000Y378280D01*
X458600Y387680D02*
Y458100D01*
X462000Y461500D01*
X477600D01*
X488200Y450900D01*
X508400D01*
X511500Y454000D01*
Y458700D01*
X516000Y463200D01*
X548000D01*
X555826Y455374D01*
X505100Y305320D02*
X524280Y324500D01*
X505100Y273100D02*
Y305320D01*
X475500Y243500D02*
X505100Y273100D01*
X489780Y139693D02*
Y160000D01*
Y139693D02*
X495500Y133972D01*
X652100Y144237D02*
X657876Y138461D01*
X652100Y144237D02*
Y202941D01*
X662659Y213500D01*
X462220Y142193D02*
Y160000D01*
X454000Y133972D02*
X462220Y142193D01*
X662659Y163323D02*
Y193421D01*
X657876Y158539D02*
X662659Y163323D01*
X636900Y433915D02*
X642815Y428000D01*
X636900Y433915D02*
Y460000D01*
X639100Y462200D01*
X654800D01*
X661500Y455500D01*
X496500D02*
X513300Y472300D01*
X621800D01*
X626100Y468000D01*
Y350700D02*
Y468000D01*
Y350700D02*
X651500Y325300D01*
Y291600D02*
Y325300D01*
X644000Y284100D02*
X651500Y291600D01*
X627300Y284100D02*
X644000D01*
X608539Y302861D02*
X627300Y284100D01*
X608539Y302861D02*
Y322000D01*
X492200Y380200D02*
X497000Y385000D01*
X436280Y287629D02*
X445500Y278409D01*
Y263500D02*
Y278409D01*
X560000Y398000D02*
Y405815D01*
X527000Y365000D02*
X560000Y398000D01*
X588854Y315925D02*
X612280Y292500D01*
X588854Y315925D02*
Y322000D01*
X440700Y248300D02*
X445500Y243500D01*
X440700Y248300D02*
Y270020D01*
X408720Y302000D02*
X440700Y270020D01*
X398559Y183205D02*
X418264Y163500D01*
X398559Y183205D02*
Y195000D01*
X620500Y134374D02*
Y146500D01*
X602500Y164500D02*
X620500Y146500D01*
X408854Y205295D02*
Y221500D01*
X398559Y195000D02*
X408854Y205295D01*
X496720Y274720D02*
Y324500D01*
X475500Y253500D02*
X496720Y274720D01*
X569280Y324500D02*
Y435654D01*
X589000Y455374D01*
X365500Y434500D02*
X370000Y439000D01*
X365500Y386500D02*
Y434500D01*
Y386500D02*
X370000Y382000D01*
X589051Y336297D02*
Y350500D01*
X588854Y336100D02*
X589051Y336297D01*
X588854Y322000D02*
Y336100D01*
X589051Y391395D02*
Y402500D01*
X588756Y391100D02*
X589051Y391395D01*
X588756Y380000D02*
Y391100D01*
X374136Y330136D02*
Y373498D01*
X404541Y255955D02*
Y275198D01*
X413995Y226640D02*
Y246501D01*
X666764Y336297D02*
Y350500D01*
Y336297D02*
X666961Y336100D01*
Y322000D02*
Y336100D01*
X667059Y365395D02*
Y380000D01*
X666764Y365100D02*
X667059Y365395D01*
X666764Y350500D02*
Y365100D01*
Y391395D02*
Y402500D01*
Y391395D02*
X667059Y391100D01*
Y380000D02*
Y391100D01*
X463488Y414000D02*
Y435500D01*
X666547Y266500D02*
Y289500D01*
Y244000D02*
Y266500D01*
X493512Y414000D02*
Y435500D01*
X407000Y361780D02*
Y373445D01*
X584720Y281700D02*
Y292500D01*
Y281700D02*
X585220Y281200D01*
Y270500D02*
Y281200D01*
D44*
X343000Y158000D02*
D03*
Y148000D02*
D03*
D45*
Y138000D02*
D03*
D46*
X587171Y134301D02*
D03*
X445500Y263500D02*
D03*
X511500D02*
D03*
X497000Y385000D02*
D03*
X572500Y194500D02*
D03*
D47*
X577171Y134301D02*
D03*
X567171D02*
D03*
X557171D02*
D03*
X547171D02*
D03*
X537171D02*
D03*
X343000Y243000D02*
D03*
Y233000D02*
D03*
Y223000D02*
D03*
Y213000D02*
D03*
Y203000D02*
D03*
Y193000D02*
D03*
Y183000D02*
D03*
X445500Y253500D02*
D03*
Y243500D02*
D03*
Y233500D02*
D03*
X475500Y263500D02*
D03*
Y253500D02*
D03*
Y243500D02*
D03*
Y233500D02*
D03*
X511500Y253500D02*
D03*
Y243500D02*
D03*
Y233500D02*
D03*
X541500Y263500D02*
D03*
Y253500D02*
D03*
Y243500D02*
D03*
Y233500D02*
D03*
X497000Y375000D02*
D03*
Y365000D02*
D03*
Y355000D02*
D03*
X527000Y385000D02*
D03*
Y375000D02*
D03*
Y365000D02*
D03*
Y355000D02*
D03*
X572500Y184500D02*
D03*
Y174500D02*
D03*
Y164500D02*
D03*
X602500Y194500D02*
D03*
Y184500D02*
D03*
Y174500D02*
D03*
Y164500D02*
D03*
D48*
X343000Y253000D02*
D03*
D49*
X407000Y426555D02*
D03*
Y373445D02*
D03*
X440000Y426555D02*
D03*
Y373445D02*
D03*
D50*
X322500Y110000D02*
D03*
X690000D02*
D03*
Y480000D02*
D03*
X322500D02*
D03*
D51*
X370000Y439000D02*
D03*
Y429000D02*
D03*
X388000Y455500D02*
D03*
X378000D02*
D03*
X444000D02*
D03*
X434000D02*
D03*
X370000Y346000D02*
D03*
Y336000D02*
D03*
X343287Y355000D02*
D03*
Y345000D02*
D03*
X370000Y372000D02*
D03*
Y382000D02*
D03*
Y278000D02*
D03*
Y288000D02*
D03*
X343287Y405500D02*
D03*
Y395500D02*
D03*
Y299000D02*
D03*
Y289000D02*
D03*
X515500Y133972D02*
D03*
X505500D02*
D03*
X454000D02*
D03*
X464000D02*
D03*
D52*
X370000Y419000D02*
D03*
Y326000D02*
D03*
X343287Y335000D02*
D03*
X370000Y392000D02*
D03*
Y298000D02*
D03*
X343287Y385500D02*
D03*
Y279000D02*
D03*
D53*
X368000Y455500D02*
D03*
X424000D02*
D03*
X495500Y133972D02*
D03*
X474000D02*
D03*
D54*
X473500Y455098D02*
D03*
X620500Y134374D02*
D03*
D55*
X463500Y455098D02*
D03*
X610500Y134374D02*
D03*
D56*
X546500Y455500D02*
D03*
X671500D02*
D03*
D57*
X536500D02*
D03*
X526500D02*
D03*
X516500D02*
D03*
X506500D02*
D03*
X496500D02*
D03*
X661500D02*
D03*
X651500D02*
D03*
X641500D02*
D03*
X631500D02*
D03*
X621500D02*
D03*
D58*
X569000Y455374D02*
D03*
D59*
X579000D02*
D03*
X589000D02*
D03*
X599000D02*
D03*
D60*
X638988Y244000D02*
D03*
X666547D02*
D03*
X638988Y266500D02*
D03*
X666547D02*
D03*
Y289500D02*
D03*
X638988D02*
D03*
X453720Y324500D02*
D03*
X481280D02*
D03*
X585220Y270500D02*
D03*
X612780D02*
D03*
X569280Y324500D02*
D03*
X541720D02*
D03*
X612280Y292500D02*
D03*
X584720D02*
D03*
X468000Y378280D02*
D03*
Y350720D02*
D03*
X524280Y324500D02*
D03*
X496720D02*
D03*
X433780Y349500D02*
D03*
X406220D02*
D03*
X435280Y324500D02*
D03*
X407720D02*
D03*
X408720Y302000D02*
D03*
X436280D02*
D03*
X545780Y160000D02*
D03*
X518220D02*
D03*
X489780D02*
D03*
X462220D02*
D03*
D61*
X360415Y232415D02*
D03*
X555826Y455374D02*
D03*
X581643Y356500D02*
D03*
X401500Y398500D02*
D03*
X467000Y249500D02*
D03*
M02*
